<?xml version="1.0" encoding="UTF-8"?>
<svg id="Capa_1" data-name="Capa 1" xmlns="http://www.w3.org/2000/svg" viewBox="0 0 364.47 181.59">
  <defs>
    <style>
      .cls-1 {
        fill: #464646;
      }
    </style>
  </defs>
  <path class="cls-1" d="M214.66,157.76c-19.99,25.17-58.4,28.01-87.69,19.51-15.39-4.46-27.57-14.61-33.96-29.47l32.47-15.86c2.61,3.34,5.28,6.22,8.41,8.91,12.17,7.3,28.64,8.21,40.51.66,6.18-3.93,10.56-10.05,10.7-17.7l.24-12.65c-10.61,9.96-23.4,11.28-37.52,11.54-19.22.36-36.3-8.6-47.16-24.42-15.45-22.52-14.58-55.68,2.65-77.25C114.55,7,130.59-.46,148.61.02c13.86.37,26.26,4.68,36.58,14.22l.22-10.9h75.12s28.32,63.33,28.32,63.33l28.29-63.3,47.33.05-62.01,115.75-27.11.15-49.92-93-.15,98.3c-.02,12.34-3.71,23.38-10.61,33.15ZM186.55,61.48c0-15.09-12.23-27.32-27.32-27.32s-27.32,12.23-27.32,27.32,12.23,27.32,27.32,27.32,27.32-12.23,27.32-27.32Z"/>
  <path class="cls-1" d="M60.88,88.34c9.81,3.27,19.79,1.6,28.66-3.61l13.64,27.93c-16.35,9.11-34.38,11.94-52.5,8.78-18.37-4.39-34.26-15.62-43.53-32.24C-5.17,67.12-1.19,39.67,16.13,21.54,35.83.9,60.23-4.2,87.55,3.41c5.7,1.62,10.55,3.77,15.5,7.51l-13.46,27.14c-8.54-5.12-18.53-6.73-27.78-3.77-11.7,3.74-19.06,14.84-19.25,26.44-.2,12.16,6.37,22.75,18.33,27.6Z"/>
</svg>