<?xml version="1.0" encoding="UTF-8"?>
<svg id="Capa_1" data-name="Capa 1" xmlns="http://www.w3.org/2000/svg" viewBox="0 0 21.6 21.6">
  <defs>
    <style>
      .cls-1 {
        fill: none;
        stroke: #43474a;
        stroke-linecap: round;
        stroke-linejoin: round;
        stroke-width: 1.6px;
      }
    </style>
  </defs>
  <path class="cls-1" d="M16.3,5.3h.01M5.8.8h10c2.76,0,5,2.24,5,5v10c0,2.76-2.24,5-5,5H5.8c-2.76,0-5-2.24-5-5V5.8C.8,3.04,3.04.8,5.8.8ZM14.8,10.17c.12.83-.02,1.68-.41,2.43-.39.75-1,1.35-1.75,1.73-.75.38-1.6.51-2.43.38-.83-.13-1.6-.53-2.19-1.12-.59-.6-.99-1.36-1.12-2.19-.13-.83,0-1.68.38-2.43.38-.75.98-1.36,1.73-1.75.75-.39,1.6-.53,2.43-.41.85.13,1.63.52,2.24,1.13.61.61,1,1.39,1.13,2.24Z"/>
</svg>