<?xml version="1.0" encoding="UTF-8"?>
<svg xmlns="http://www.w3.org/2000/svg" xmlns:xlink="http://www.w3.org/1999/xlink" viewBox="0 0 1178 366.55">
  <defs>
    <style>
      .cls-1 {
        fill: none;
      }

      .cls-2 {
        fill: #d6e3f0;
      }

      .cls-3 {
        fill: #a9bfd4;
      }

      .cls-4 {
        clip-path: url(#clippath);
      }
    </style>
    <clipPath id="clippath">
      <rect class="cls-1" x="-2.41" y="-88.22" width="1182.82" height="455.53"/>
    </clipPath>
  </defs>
  <g id="Capa_1" data-name="Capa 1">
    <rect class="cls-3" x="-2.41" y="-88.22" width="1182.82" height="455.53"/>
  </g>
  <g id="Capa_2" data-name="Capa 2">
    <g class="cls-4">
      <g>
        <polygon class="cls-2" points="181.76 288.31 181.42 290.16 176.55 288.6 181.76 288.31"/>
        <path class="cls-2" d="M143.64,264.99l-2,4.49c-1.05-.85-1.67-1.36-1.44-1.64l1.91-2.25c-.48-.14-2.94.02-3.14.81l-.92,3.53c-.22.85-.87,2.44-1.5,3.03s-2.7.11-4.37-.35l1.89,1.99-9.47,7.01c-.05.65-.15,2.17-.76,2.44l-2.81,1.22-3.26,4.73c-1.21,1.76-4.46,1.24-6.77,1.13l4.69,1.9-3.32,2.27c-.73,4.96-5.82,11.31-5.79,11.31l-4.05.58,3.25,1.05-3.43,7.15-4.53.02,3.27,1.76c-7.24,16.6-8.33,31.32-1.06,47.56,4.47,9.99,8.74,19.55,12.29,29.97,5.1,14.98,12.35,27.94,22.3,40.36,6.52,8.14,13.49,15.95,21.85,22.32,22.25,16.95,51.88,30.65,79.77,30.85,14.71.11,28.52-1.51,42.4-6.01,15.84-5.14,31.31-8.77,47.61-12.29l25.18-5.43,6.03-1.48,13.24-6.27c13.99-6.63,26.61-15.13,37.68-25.76,5.98-5.74,11.52-10.91,18.13-15.76l7.79-5.72c.39-.29,1.64-1.56,2.02-1.26l1.8,1.45c.77-2.79,2.71-3.53,5.19-4.71,9.93-4.72,19.58-7.12,30.55-7.36l6.75-.15,10.75.84,25.13,5.36-2.9-5.22-1.53,1.69c-.48.53-2.18-.47-3.03-.72l-17.29-4.98c-.92-.26-2.63-1.7-3.37-1.5-1.12.3-3.09.99-3.62.46l-2.33-2.3c-1.99.87-5.2,1.96-7.64,2.16-22.16,1.77-41.39,9.87-58.76,23.04l-21.6,16.38c-13.55,10.27-27.37,19.98-43.69,25.57l-10.18,3.49c-12.66,4.34-26.21,4.62-38.9,8.5l-29.55,9.04c-13.69,4.19-27.6,6.76-41.89,5.88-14.24-.88-26-7.6-38.24-13.7-14.67-7.31-27.08-15.8-39.4-26.5-13.44-11.68-25.25-24.02-31.28-41.36l-4.24-12.18-12.91-34.16c-2.85-7.55-5-16.27-3.24-23.76l2.07-8.84c1.86-7.92,6.06-14.86,10.93-21.41,4.03,1.35,2.64.88,1.83.53-3.61-1.55-.51-3.03-.19-3.42l5.32-6.23,9.31-9.38c1.4-1.41,2.75-1.73,5.19-1.83l1.41-5.01,9.62-6.79c1.92-1.36,4.91-3.47,7.04.65l-8.98,2.99,2.87,1.75-9.73,8.49c-8.35,7.29-10.02,13.57-16.25,12.46.45.05,2.42,2.8,1.81,3.48l-6.92,7.77-3.39,8.04c-1.05,2.48-3.38,4.17-5.84,4.08,3.76,3.07.63,6.06-.19,9.22-1.75,6.79-1.28,14.91,1.3,21.74l17.65,46.76c6.04,16.01,15.22,30.08,28.99,40.64-2.8-5.93-6.51-10.4-9.99-15.31-8.93-12.56-13.47-26.47-18.21-40.91-4.2-12.8-9.78-24.42-12.41-37.84-1.41-7.19.48-21.73,5.07-25.56-.5-3.65,1.52-7.72,5.41-7.41-1.08-.65-2.18-1.47-1.93-1.8l1.71-2.25,10.91-13.14,7.31-6.77,6.42,2.38c-.25.41-1,1.57-1.48,1.49l-3.16-.53c-.48-.3.75.48,2.01,1.29l-6.71,3.64c.94.72,1.9,1.61,1.43,1.82l-2.8,1.26c-.36,1.57-.84,3.97-1.72,4.98-1.14,1.3-3.41,2-5.73,2.33-.31-.21.68.47,1.78,1.24-11.62,14.87-19,32.66-10.25,50.78,6.67,13.83,12.98,27.16,17.73,42.04,4.69,14.71,17.68,32.51,27.62,45.26l.22,1.67c.05.37,1.77.6,2.14.91,8.85,7.35,19.04,15.91,29.87,20.73,6.93,3.08,13.61,6.43,20.91,8.08,12.56,2.83,26.56,1.86,38.73-1.6l19.67-5.59c13.54-3.85,26.19-8.77,40.22-10.97,18.08-2.83,34.31-8.61,50.88-16.85,17-11.4,33.07-23.46,49.58-35.91l2.48-.35c.54-.08.93-1.74,1.2-2.53,13.67-7.72,28.17-13.78,43.78-16.45,9.47,2.14,16.26-2.05,20.57,2.4,1.09-.5,4.19-1.23,5.67-.82l15.09,4.21,13.47,5.24c5.46,2.13,10.37,4.64,15.25,7.67l4.62,2.87c3.54-.16,8.27,1.48,9.46,5.8l-3.44-.34c.74,1.26.84,4.79-.52,5.6-1.17.7-3.54.04-5.08-.61l-11.12-4.75,3.95-.68-.55-3.96c-.05-.37-1.17-1.24-1.18-.85l-.03,2.8-4.77,1.66-9.68-3.46c-1.02-.36-2.82-1.66-3.68-2.33l-1.01.7c-.24.16-.45.08-.51-.17l-.55-2.16-1.49,1.81c-.27.33-19.19-5.09-33.36-4.96-14.03.13-28.24,4.32-41.27,11.13l10.79-2.52c14.52-3.4,28.44-5.06,43.37-4.17,2.29.14,4.52.79,6.35,1.52,1.63-.22,4.5-.45,6.71.12l3.77.97c.79.2,1.05,2.3,1.11,2.71.79-.99,2.16-2.43,2.88-2.17,2.43.9,3.32,1.83,4.84,3.65-1.39-1.67,6.56-1.21,13.34,2.86l5.69,5.42,3.12-.66c.71-.15.65,2.46.31,3.46-.46.93.15,2.43.78,1.56.58-1.66,2.01-4.36,2.74-3.77l3.9,3.17,2.45.23c.66.06-.43,2.72-1.17,3-4.26,1.62-11.41-.1-12.18-6.17-2.36-.42-3.86.33-1.93,2.59-.28.14-2.16-.16-2.36-.85l-1.09-3.68-1.2,3.28-9.59-4.77c-1.94-.97-3.58-1.07-5.82-1.64-13.93-3.5-27.26-6.46-41.84-5.1l-11.93,1.11-5.81.55-6.23,2.19c-6.96,2.44-14.21,4.59-20.47,8.53l-9.35,5.9c-13.27,8.37-24.63,18.57-38.3,26.23-15.86,8.89-32.08,14.86-50.06,17.74-18.71,3-35.99,7.66-54,13.27-23.76,7.4-47.81,5.96-71.34-.97-8.81-2.6-16.93-5.65-24.99-10.11-9.84-5.45-19.7-10.7-28.63-17.79-20.11-15.96-34.85-37.45-43.72-61.31l-7.89-21.21c-3.32-8.92-7.14-17.6-8.6-27.11-3.63-23.7,6.43-42.57,19.64-61.67,2.71-3.92,6.68-7.65,10.51-10.86l6.05-5.08c.44-.37,2.31-.87,2.87-.99.75-.16.27-3.02.87-3.49l6.69-5.28.81-.32.78-1.01c.24-.31,1.24-.32,1.59-.13s.92,1.45.54,1.57l-2.5.83-.37.14,4.33.55.61-.67-1.25-1.96c-.37-.58,2.23-1.41,2.07-1l.47,2.52c.08.41-.25.58-.67.96l-.32.69ZM522.51,405.22l-5.23,2.95,7.08,1.81-1.85-4.76Z"/>
        <path class="cls-2" d="M167.22,325.59c-2.79-1.35-2.3-.53-.53.77-8.18,12.77-8.27,27.85-2.76,41.85,2.56,6.51,10.24,18.11,15.76,24.53l10.85,12.6c11.19,12.99,22.41,27.03,39.65,30.34,14.3,2.74,29.32,3.46,43.94,1.36,8.54-1.23,17.5-2.27,25.49-5.16l27.63-9.98,39.44-15.49,9.12-3.5,21.82-8.1c25.6-9.5,54.79-19.75,81.6-17.1,9.99.99,19.3,2.59,28.63,5.9l13.25,4.7c5.51,1.96,11.21,3.63,15.62,7.76,1.29-.21,2.66-.42,2.79.27l.79,4.22.85-4.47,8.73,5.19c2.73.64,5.96.81,6.76,4.89l-3.08-.86,1.35,1.76c.37.48,2.03.96,2.29.42l1.96-4.09,4.55,6.4-.88-2.38c-.19-.51,2.46-1.29,2.57-.77l.67,3.22,1.14-1.87c.31-.5,1.43,1.56,1.75,2.32l1.61-1.3c1.37,2.05,3.26,4.64,4.94,5.47l7.59,3.77-6.64-5.49c4.33-.14,8.35,3.04,9.56,6.7,2.93-1.22,5.1-.95,7.37.39l6.66,3.92-.6,7.39-12.02-6.51c-.41-.22-1.04-2.46-1.5-2.46h-2.57s-14.95-6.76-14.95-6.76l-.6-3.34c-.14-.8-2.4.23-3.26.53-4.46-.14-10.03-2.95-14.19-5.57.61-.64,2.4-1.96,1.81-2.27l-2.75-1.42c-.58-.3-.75,1.28-.85,3.56l-7.6-3.4c-3.41-1.52-5.49-2.41-8.59-5.9-.63-.05-.61.27.42,2.65-4.15-1.51-8.98-4.13-12.6-7.04-1.37.86-3.02.75-5.11.07-9.07-2.96-17.89-6.6-27.26-8.05-21.29-3.29-38.04-2.61-56.47,8.83l-15,9.3-36.25,26.43c-17.95,13.09-39.35,20.21-61.18,24.86l-24.7,5.26c-6.25,1.33-12.73,3.14-18.7,5.38l-13.25,4.96c-16.29,6.1-32.52,5.76-48.54-.31-11.68-4.42-21.79-9.94-31.3-18.06-12.78-10.9-26.23-22.8-33.3-38.26l-4.82-10.52c-5.35-11.68-8.96-23.24-14.69-34.71-3.7-7.4-6.11-15.65-5.89-24.02l1.47-9.93c2.81-10.85,8.91-19.42,16.04-27.75,1.27-1.48,3.2-2.94,4.94-2.68,1.36.2,4.24,1.97,4.62,2.6-5.13.44-7.06,1.7-9.53,5.59l4.13.04-4.74,2.1,1.47,1.55c-6.62,10.14-13.34,20.5-12.65,33.15.84,15.62,7.65,25.35,14.15,38.36,4.29,8.59,7.09,17.59,11.87,25.74,7.07,12.05,15.67,22.66,26.5,31.2,6.24,4.92,12.02,10.02,18.9,13.91,9.47,5.35,20.16,9.52,31.13,10.94,11.16,1.45,22.49-1.65,32.85-5.52,13.12-4.89,25.5-9.06,39.22-11.92,37.95-7.92,58.13-13.61,89.24-37.82l19.82-15.42c-9.38,2.63-15.78,8.42-23.39,12.94l-27.47,16.29c-1.58-3.38-2.2-1.82-1.73.59-15.72,9.42-33.08,13.54-51.02,17.09l-25.83,5.11-32.1,10.12c-19.69,6.21-47.75-7.63-64.77-21.1-12.51-9.91-20.47-23.72-27.79-37.76l-12.25-23.45-7.07-15.32c-3.24-7.02-5.02-15.62-3.44-23.45,1.22-6.07,4.69-11.46,7.37-17.19l4.85.54,1.29-1.89c.36-.53,2.38.85,1.97,1.53-9.08,15.3-13.6,24.75-5.95,43.5,3.66,8.97,8.03,17.22,12.85,25.64l7.7,13.47c4.56,7.97,9.6,14.91,15.94,21.79,6.45,6.99,14.24,11.88,22.46,17,8.7,5.42,18.87,9.15,29.06,10.63,20.09,2.92,35.64-7.82,49.77-10.57l29.99-5.85c10.92-2.13,21.58-4.18,31.72-8.68,13.03-5.79,24.81-12.72,37.01-19.83,3.19-1.86,6.12-3.4,9.27-6.21l-29.03,10.76-32.68,12.83c-20.82,8.18-41.61,15.11-64.07,17.16-14.71,1.34-28.8,1.16-42.77-2.85-9.45-2.71-16.17-9.32-23.05-15.9-6.02-5.76-11.49-11.46-16.88-17.78l-6.24-7.33-9.68-11.59c-15.9-19.04-20.91-46.41-5.17-66.18,2.3-2.88,4.63-5.95,8.68-6.05,2.09.65,2.6,2.38.31,2.45l-3.82,6.6Z"/>
        <path class="cls-2" d="M719.25-193.34l-2.58-3.99c8.65.86,15.47,2.46,22.97,4.37l5.55,1.42,9.83,3.3,11.03,4.54,43.97,20.53,7.39,3.21,13.5,5.02c19.66,7.31,40.07,10.09,61.18,11.12l45.98,2.25c18.9.92,38.47,6.28,54.88,15.59,9.04,5.13,16.47,11.55,23.73,18.9s12.75,15.75,17.25,25.34c6.2,13.2,9.16,26.57,7.25,41.31-4,30.84,6.96,52.6-1.36,80.04-3.63,11.96-10.19,22.17-16.16,33.02l-17.44,31.66c-6.39,11.6-10.76,23.42-13,36.26l-2.42-1.33c-.37-.2-.63.72-.65,1.04.89.75,2.17,2.14,2.13,3s-1.59,1.52-2.71,2.21l-2.28,1.39c-.52.32-2.7-1.25-2.28-1.69l2.06-2.15c-2.3-3.4-.06-9.44,4-11.86-1.61-2.18-1.83-4.67-.49-7.44l20.06-41.6,16.02-28.5c7.02-12.48,10.86-25.93,10.12-40.42-5.1,20.02-13.86,36.66-24.4,53.67l-17.59,31.52-5.61,13.33c-2.83-.56-3.03.44-.8,1.6l-2.81,6.9-5.14-3.75,4.24-9.67,3.37-7.83,21.73-39.95c7.78-14.3,15.53-27.93,19.89-43.65,3.4-12.24,4.97-24.66,2.71-37.23-2.97-16.5-6.16-32.71-12.23-48.42-4.07-10.52-11.48-19.86-18.79-28.03-7.42-8.3-15.85-14.3-26.03-18.51-13.39-5.54-27.31-10.06-41.99-10.59l-46.85-1.67c-22.27-.79-44.17-2.94-65.15-10.06l-20.82-9.12-31.21-15.18c-37.21-18.09-56.31-17.25-94.29-22.25-1.42-.19-1.46-5.1,0-5.93l7.71,4.08,1.83-2.42c.41-.54,2.35.57,2.98.99,4.93-.93,10.41.15,15.75,1.01l15.48,2.5,7.74.65c14.94,1.25,27.71,7.51,41.09,13.95l48.21,23.19,18.01,6.21c11.75,4.05,24.29,4.97,36.83,5.52l48.49,2.11c24.7,1.08,48.66,4.62,69.72,17.98,17.34,11,30.6,27.29,38.78,46.08l6.84,23.88c5.99-32.59-25.01-68.87-55.06-80.74-7.97-3.15-16.25-6.3-24.85-7.79l-46-3.32-30.97-1.7c-16.63-.91-32.76-4.3-48.58-9.4-15.37-4.96-29.19-12.01-43.54-19.01l-18.82-9.18c-2.64-1.29-6.36-1.53-7.49-4.7l-3.24.47c-10.37-4.38-21.44-7.49-32.8-9.06-.82-.11-2.7-1.12-3.08-1.78-.34-.51-.26.04-.11,1.16l-25.47-3.49c-1.84-.25-4.13-2.12-5.43-3.6-2.59,1.68-6.72,1.72-9.21-.24,2.62-.91,7.42-2.71,9.69-2.44l25.91,3.1,3.41,4.56.49-.27Z"/>
        <path class="cls-2" d="M733.15-147.94c-3.86-1.42-7.69-2.55-9.04-5.9-.31-.04-2.24-.25-2.24-.27,0-.04-.06.66-.23,2.46-1.73-.62-4.18-2.38-5.21-4.49l-9.89-2.56c6.67-1.95,12.28.79,18.69,2.06,2.53.5,4.73,1.98,5.56,3.83l3.33-1.29c.81-.31,1.88,2.44,2.09,3.69l7.96,3.81c2.33-1.51,4.48-2.08,6.72-1.11l17.89,7.72,6.73,2.7c.33.13.51,1.83.19,1.97s1.83-.89,2.3-1.09l16.13,6.55c7.18,2.92,15.5,5.42,22.67,6.97,1.26.27,3.48,2.55,3.31,2.71,1.12-.83,2.56-.82,4.51-.55,30.81,4.31,61.28,5.73,92.44,6.82,13.68.48,25.89,2.82,38.77,6.5,16.89,4.83,30.42,15.14,39.63,30.32,13.96,23,23.5,51.13,19.5,78.13l-2.87,19.37c11.84-23.97,9.15-52.61.32-77.03-4.4-12.18-8.97-23.71-17.68-33.49-5.27-5.92-11.95-11.81-19.3-15.09-10.09-4.51-20.34-8.69-31.26-10.12l-32.92-4.31-32.76-1.19-41.95-3.79-10.07-1.63-14.29-3.96-8.53-2.97-30.21-14.31c-13.24-6.27-26.17-12.74-40.62-15.93l-20.24-4.46c-.73-.16-1.96-2.92-2.55-2.63-6.93,3.39-10.97.3-19.11-4l1.44,3.75-8.63-3.16-4.42.49c-1.14.12-2.48-1.82-3.37-2.93l-2.68,1.58c-.56.33-1.4-2.01-1.31-3.06,24.64.47,47.57,4.66,71.29,10.96,12.74,4.03,24.82,9.63,36.51,15.76.2.45.6,2.01.99,1.96l2.04-.26,21.97,10.86,6.77,2.67c17.11,4.2,33.88,6.73,51.55,8.38l51,2.2c17.98.77,35.34,3.52,52.44,9.46,34.75,12.07,50.02,46.06,57.89,80.2,8.98,38.96-8.94,66.47-25.03,99.23l-19.48,39.68c-1.76,3.59-.95,8.52-2.68,8.41l-3.79-.22,2.46,2.4c.66.64.2,3.26-.11,4.14l-2.57,7.18-1.81,9.02-4.98-4.37,2.75-6.96c.08-6.04,1.97-11.54,5.26-16.4-.05-2.22-.08-5.83,1.02-8.15l19.45-41.42c6.06-12.9,9.01-26.68,12.35-40.66,5.13-21.47,4.65-43.34-2.92-64.15l-11.27-24.24c-9.1-16.16-25.26-27.29-43.09-31.59-10.12-2.44-19.54-3.91-29.77-4.35l-51.25-2.19-28.14-2.28c-.09-.27-.18-1.72-.57-1.68l-2.71.3c-.48.05-1.76-.92-2.24-1.17s-1.49.9-2.13,1.44l-20.74-4.22-13.81-5.21c.02-2.33-1.49-3.13-1.69-.11l-15.9-6.3-22.02-8.73-1.68-3.98c-.61.1-1.1.18-1.09.18-.35,1.22-.68,2.3-.67,2.28,0-.03-1.31-.4-1.63-.52l-20.8-7.65Z"/>
        <path class="cls-2" d="M950.96,104.73l-5.52-.58,5.22-11.78,13.35-38.57c4.65-13.42,8.25-26.84,8.61-41.17.42-16.54-3.06-33.17-13.33-45.75-16.96-20.77-48.78-31.4-74.91-37.02-16.8-3.62-33.83-3.05-51.12-3.84-4.3-.2-7.59-.6-12.02.88,2.38,1.24,3.49.76,6.43.93l13.64.76c.42.02,2.06,2.2,1.8,2.53-.35.44,1.23-1.52,1.85-2.29,12.76,1.06,25.26,3.46,37.73,6.76l22.5,5.96,7.01,2.47c12.41,4.37,23.5,12.07,33.18,21.04,20.51,19,22.79,49.72,15.3,76.14l-9.2,32.4-6.81,20.32-.51,3.01c-.16.96-2.18,2.28-3.51,3.21l.91,9.71c-2.44-1.5-4.93-3.8-5.45-4.98,1.45-2.77,1.1-3.35,1.33-5.7.94-9.55,4.64-18.49,7.5-28.15.72-2.45.9-6.55,1.21-10l1.84-19.99c.05-.53,1.36-1.73,1.19-2.04s-.82-1.38-.91-1.76l-2.49-22.7c-1.59-14.46-12.18-29.76-23.01-39.4l-7.13-6.34c-5.63-5.01-11.69-9.08-18.89-11.93l-29.7-11.72c-1.72-.68-2.89-1.15-4.75-1.19l-27.14-7.44c-.06-.07-.32-1.65-.67-1.53l-2.59.86-40.94-6.14c-12.14-1.56-24.11-3.4-36.11-1.83-5.39.7-8.5-.24-12.39-4.1-1.74-1.73-3.29-3.53-3.66-6.09l19,3.61c1.19.23,2.32.15,3.97.16l19.34.14,39.47.25,8.88-.3,36.56.72c13.68.27,26.51,4.2,39.7,7.99,21.99,6.32,48.87,18.6,60.83,37.98,8.92,14.46,13.08,29.97,12.09,47.33-.89,15.56-4.74,30.41-10.14,45.1l-11.99,32.63c-.83.24-2.05.5-1.92.88s.86,2.19.71,2.56l-3.56,8.63-.26.63c-.27.76-1.14,2.21-1.95,2.37-1.01.19-3.71-1.06-4.03-1.96l4.85-1.49.62-.18ZM953.82,41.92c4.95-11.97,4.7-23.88,4.22-36.12s-4.23-24.65-13.2-33.38l-15.44-11.57c-8.16-6.12-16.83-10.97-26.64-13.84l-10.48-3.08-42.11-9.93-2.73-.78c-.56-.16-1.37,1.76-1.28,1.63,2.41.75,4.71,2.07,5.97,3.76l1.86-1.29c.44-.3,1.97.6,2.51.73l17.06,4.04c8.54,2.02,16.24,5.34,24.15,8.63,11.74,4.89,21.32,11.25,30.12,20.42l7.58,7.89c15.99,16.66,19.23,40.98,18.42,62.88Z"/>
        <path class="cls-2" d="M177.77,314.65c.08-.14-.92-1.39-1.15-1l-1.49,2.53c-.58.98-3.1.39-4.18-.93-1.94-2.35,2.45-8.28,6.2-7.31l-2.95,4.17,9.19,1.32-4.59,2.38-.84.08.79,3.93,1.36,1.1c.32.26-.32,1.58-.74,1.58h-3.09c1.7.64,3.63,1.97,3.14,3.13-.66,1.59-2.62,3.28-4.09,3.89.13.05,2.17,1.13,2.08,1.93l-.44,3.74-1.91,11.75c1.04.82,2.28,2.99,2.99,5.44l3.51,12.18.17,2.28c.03.39.89.66,1.6,1.01l6.77,13.02c10.34,19.87,38.84,39.19,63.09,44.36,11.02,2.35,22.41,1.95,33.96.49,13.31-1.69,25.48-7.69,37.95-12.5l15.51-5.98,23.73-9.08,11.46-5.35c-7.14.83-13.24,3.61-20.03,5.89l-25.32,8.5c-21.8,7.31-53.44,12.87-75.84,9.1-14.45-2.43-27.8-8.38-40.19-15.66-7.21-4.24-16.24-14.7-20.04-21.8-4.05-3.58-7.01-9.08-7.4-14.55l-.21-2.93c-.04-.6-1.23-1.42-1.74-1.9l-2.88-11.25c-.36-1.39.24-3.19,1.35-4.22-3.96-5.59.54-13.26,1.6-19.05.7-.15,2.07-.24,1.99-.56l-.46-1.9,6.82-1.31-4.32,11.45c-1.23,3.25-1.82,9.45-1.68,13.58.31,9.36,4.05,17.72,8.38,25.95,8.47,16.09,23.32,27.56,40.57,33.17,7.17,2.33,14.54,6.03,21.89,6.46l21.08,1.22,11.13-.97c20.32-3.53,39.81-8.83,59.06-15.73l29.25-10.47,35.56-10.78,17.65-3.76,8.07-.93,3.95-1.73c.94-.41,2.29,1.37,3.45,2.74.07-.42-.46-2.38.14-2.57l3.08-.98c3.55-1.13,6.68-.48,9.72,1.47l-.64-1.59c-.13-.33.21-1.54.52-1.36l2.59,1.53c1.21-2.71,4.29-1.77,6.97-1.59,2.46.16,5.52.47,7.79,1.34l2.1-.41c.49-.1,1.31.16,1.95.24,1.55-.44,3.85.6,5.81.84l7.83.95c12.67,2.89,24.18,7.3,36.19,12.02l14.04,5.51,6.24,3.45c1.37.76,2.39,4.54,3.84,4.57l6.14.12,1.57,1.73c.73.8,5.56-.29,5.94,1l1.03,3.46,2.14-2.12,1.84,2.81c.47.72-1.19,2.86-1.68,3.25l-7.49-6.02,2.1,4.02c-4.22-.5-7.98-2.94-9.46-6.67l-1.3,1.63c-.3.37-1.93-.21-2.17-.64l-2.26-4.18-4.05.67c-.93.15-2.25-1.77-3.39-3.03l-.28,2.29-36.8-14.28-6.64-2.45-9.31-2.03-11.46-3.26c-2.08-.59-3.16-.55-5.41-.31l-19.8,2.1-12.48,1.74c-20.86,2.9-39.43,11.69-58.2,20.71l-16.33,6.81-33.3,13.92-21.41,8.68c-18.3,7.42-37.51,10.73-56.82,7.5-16.46-2.75-30.94-8.2-43.43-19.54-8.17-7.41-16.93-13.95-23.37-22.99-8.91-12.52-15.71-26.05-17.73-41.4l-.33-10.5,1.88-2.05c.39-.42-.89-1.27-1.9-2.08l2.32-9.01c.81-3.16,1.56-6.88,3.25-9.21l.71-.76Z"/>
        <path class="cls-2" d="M972.41,86l11.77-30.13c6.64-16.99,10.45-34.44,11.32-52.67l-.86-11.7c-.74-10.19-4.57-19.95-9.05-29.07-6.45-13.12-17.51-22.34-29.5-30.17-7.96-5.2-15.42-10.23-24.67-12.91l-50.72-14.71-23.31-2.57-11.58-.38-17.14.73-33.01,1.88-1.54-2.26c.99,1.47-13.28,5.21-22.43.69l2.02,1.95-11.91-.91-11.86-2.18,4.74-3.27,19.55.26c-2.57,2.84-5.81,2.08-9.83,2.11,3.65,1.19,8.15.76,11.94-1.69l10.17.83s.58-.8.99-1.35l-20.24-4.45,1.46-2.03c.23-.31-.13-.56-1.16-1.87-.2-.28,2.17-.75,3.16-.55l19.27,3.89,12.36,3.25,8.28.84,16.79-.12-22.24-5.24-3.76-1.04-38.43-11.94c1.34-2.11,1.97-3.09.1-.16l-7.54-4.71-1.86,1.34c-1.75-2.74-3.03-4.16-4.69-4.93l-.79,2.43c-.13.41-1.21.99-1.47.64s-.85-1.53-.84-1.97l.02-2.35c0-.57-1.34-.42-2.83-.35l.21.94c.09.4.17,1.88-.19,1.71-4.34-2.06-7.21-.53-8.69-3.09-1.33-2.29-2.6-3.4-4.94-4.81-.44-.09,1.17-1.12,1.68-1.14,4.29,1.29,6.72,2.31,9.74,4.43,3.1-.3,6.66.37,9.17,2.59l6.33,1.99,20.01,6.06,9.52,3.17,16.46,4.99c15.81,4.79,31.83,7.68,48.5,7.96l16.91-.8c12.56-.59,24.65-.83,37.08,1l21.55,3.17c15.4,2.26,31.1,7.44,42.89,17.56,19.42,16.66,30.24,39.21,32.87,64.05,1.12,10.57.52,20.01-.86,30.35-1.63,12.17-2.8,23.96-7.11,35.53l-14.71,39.49c-.41,1.11-1.23,3.07-2.11,3.01l-3.8-.29-.47.31,4.38,1.05-4.88,12.51c-.53,1.36-2.48,3.76-3.34,4.73-.15,1.81-.57,3.75-1.63,6.4l-3.1-6.09,7.62-19.37.22-.54ZM790.27-102.03l1.17,2.26,3.36-1.74-1.17-2.26-3.36,1.74ZM991.9-38.47c-1.6-12.48-8.65-22.13-16.21-31.52-8.36-10.38-18.69-17.34-31.65-21.51-22.37-7.19-45.49-11.44-69.64-10.68l26.65,6.09,27.85,8.94c20.26,6.5,37.68,17.4,51.84,33.35l11.16,15.32Z"/>
        <path class="cls-2" d="M409.72,322.02l-10.18,4.04-7.08,2.49c-3.16,1.11-6.37,1.64-9.16,1.15-.88,1.61-2.88,3.37-4.75,3.64l-11.54,1.65-4.68-2.91,1.61,2.72c.27.45.06,1.57-.46,1.6l-3.24.21c-1.65,1.08-4.6,2.07-6.74,1.96l-6.18-.32.7,1.82c.18.47-1.86.67-2.23.32l-1.43-1.37c-.87,3.02-3.3,2.13-2.79-1.15l-.79,3.95h-8s-15.5-.04-15.5-.04l-.27-3.8c-3.93,4.42-5.79,2.24-9.48,1.37-15.73-3.73-26.59-17.62-26.36-34.68l.16-11.86c-8.29,14.28-7.02,21.4-1.9,34.86,1.75,4.61,6.73,10.31,10.98,12.68l7.13,3.99c-.61,1.38-1.32,2.64-.81,2.69l2.91.25c.48.04,2.42.14,2.35-.33l-.42-2.78,7.51,1.25-1.4,3.05c-.24.52,2.62.24,1.68.28l-.19-3.04c3.11,1.08,4.89,1.73,5.18,1.54,2.98-3.47,8.01-.04,11.48-.08l12.17-.15c2.93-.04,3.26.49,6.71-.86l1.35,5.16c-10.67,1.55-20.54,2.28-31.25.74l-7.15-1.03c-.57-.08-1.84-1.66-2.26-2.07-.52-.5-2.14.84-2.93.81-7.68-.32-14.58-5.22-20.01-10.43-12.8-12.29-16.21-30-8.1-45.95l8.2-16.13,7.54-11.84c6.05,1.1,8.49-5.04,9.76-1.89.27.67.46,1.92.3,3.08l-2.39,16.43c-.07.48-1.31,1.85-1.61,2.15s1.19,1.21,1.77,1.62c.1,9.26.87,19.02,6.37,26.85,1.27,1.81,1.9,3.94,1.67,6.11l2,1.97c.42.42-1.51,1.83-2.1,2.29l-5-5.24c-6.12-10.42-8.81-22.07-8.41-34.3.49-.3,2.24-1.2,1.88-1.47l-2.06-1.53,1.68-10.55c-5.58,4.22-3.07,12.62-8.15,14.21.84,1.12,1.33,3.35,1.13,5.31l-1.13,10.94-2.41,1.02c.85.77,2.32,2.02,2.17,2.82l-.71,3.7,1.44,6.79,3.98,6.34,6.41,8.75c3.58.75,6.71,2.41,9.74,4.68l12.73,1.3c5.22.53,10,.36,16.1-.25l-11.78-3.78c-5.39-1.73-8.18-1.13-8.49-2.07l-.94-2.84c-2.41-1.74-4.58-3.67-5.14-6.89l5.94,4.22c.43.3,1.61,1.09,1.6,1.57l-.06,1.84c.6-.28,3.28-1.29,4.45-1.49,6.37,2.09,15.83,4.34,22.81,3.93l12.89-.75,8.25-1.18,4.35-.47c6.94,3.59,5.99-2.85,12.37-1.61l5.9-2.74-8.82.14,1.38-2.9c.28-.59-.54-2.69-.55-2.53l-1.76,3.22.32,1.91c.11.69-2.42.89-3.12,1.02-7.77,1.46-14.6.48-21.39.47-7.31-.01-15.71-.7-23.66-3.79l-5.53-2.94c-.07-.04-.29.04-.55.1-4.25-3.04-9.19-6.92-12.06-11.65l-3.34-5.51c-3.89-6.41-5.22-13.38-4.93-20.8,1.44-.55,1.97-1.16-.13-1.62.16-5.02,1.14-8.81,1.91-13.63l1.01-6.4,2.95.08-2.2,3.32c-.51.76,2.09,2.38,3.1,2.93l-.84,12.66c.58.72.65,1.69.14,2.52l-2.3.75,2.52,1.24c.45.22.01,1.87-.48,2.01l-1.69.46,2.88,3.76c.72.94-1.22,2.74-2.41,3.41l2.28-.37c1.77-.29,1.18,5.57,5.88,11.48l-1.5,1.46c-.22.22-.29.58.02.56l2.46-.14c7.77,6.44,16.12,11.28,25.99,13.51,2.98,1.4,6.2,1.9,9.68,1-10.02-2.72-18.44-8.47-25.04-16.52-5.61-6.84-11.24-12.71-12.85-21.93-.56-1.85-4.27-6.27,1.39-7.2-3.75-.48-4.08-3.15-3.18-5.08,4.3.89,7.84,4.78,6.44,8.97-1.14.48-2.86,1.7-2.23,2.27.94.86,2.34,1.8,3.55,2.47,4.8,7.53,7.82,18.02,15.73,22.81l14.69,8.9,11.95,2.38,2.3,4.04-.5-1.96c-.1-.41.25-1.67.66-1.56s1.91.59,2.33.58l9.82-.19c2.87-.05,5.57.55,8.22,1.17l5.57.13c2.56-1.58,4.9-1.94,8.24-2.12,1.54-.12,4.55-1.15,5.84-.44,1.66.9,3.24,2.89,3.72,4.27l.22-.36.95-2.93c.27-.83-2.66-.97-4.51-2.07l10.47-2.39,7.95-2.31,4.91,3.41-6.42,2.15-5.92,1.79-.9,1.27c-.26.36-1.41.63-1.69.25l-2.3-3.05.52,3.28c.11.68-1.53,1.65-2.21,1.78l-.67.13ZM319.04,288.91c.97-.22,3-.62,2.63-.99l-1.02-1.04c-.36-.37-1.84-.48-1.79.04.04.39.19,2.05.18,1.99ZM324.66,317.62l1-.07,2.65-1.67-3.66,1.73ZM338.32,351.32c-.84-3.61-3.72-4.02-5.61-1.92l5.61,1.92ZM400.94,319.43l.89,3.64c.12.21,2.39-1.12,2.01-1.42l-2.9-2.22Z"/>
        <path class="cls-2" d="M293.69,355.57c1.8.78,4.91,4.51,6.15,4.76l.65-4.23,23.68,1.44c.87.05,3.3,1.87,3.2,1.89l3.5-1.91c2.54-1.39,5.15-2.66,7.54.53-.52-4.72,5.88-3.2,8.49-4.13,3.53-.75,5.33-.73,8.07.4-1.32-3.51,3.27-2.7,4.58-2.06,1.17-1.24,3.01-2.89,4.47-2.91,2.06-.02,4.26,2.99,3.41,4.34l-20.07,5.99c-3.48,1.04-7.29,1.05-10.45.7.03.16.11,1.86-.36,1.76l-2.62-.56c-1.81,2.55-5.82,3-8.5,2.23-1.93,1.9-5.44,2.37-8.37,2.04-2.03,1.06-5.49,2.04-9.18,2.72-18.19,4.03-36.85,4.54-54.9-.6-3.82-1.09-7.1-3.05-10.57-4.94-5.46-2.98-11.22-7.28-12.64-13.8-2.1-9.66.22-18.9,4.5-27.32l3.17-6.23-1.23-2.37c-.27-.52,1.39-1.97,1.18-2.5l-1.51-3.75c-.4-.98.98-3.16,1.74-4.06l14.5-17.28c2.61.87,3.89.58.7-1.11l11.51-15.25c.94-1.24,4.7-1.41,5.91-.7l-2.77-3.06c1.84-1.66,3.52-3.04,5.36-3.65,1.32-.44,3.82.66,4.89,1.72,2.17-.56,5.16-1.15,7.39-1.23l-5.48,3.26,1.42,5.15c-6.25,11.65-11.74,23.54-15.64,36.15l-2.52,8.14,1.87,11.76c.56,3.5,2.31,9.37,4.33,12.16l6.18,8.54,18.4,7.99ZM270.13,282.22c-3.01-3,.79-4.45,1.44-5.94,1.58-3.6,3.07-6.13,5.09-8.34-2.96,1.81-5.33,4.84-7.19,7.67-.41.74-1.22,2.34-1.83,2.26l-2.68-.36,1.8,2.52c.3.42-1.34,1.65-1.76,1.91l-21.73,34.9c-8.19,15.7-11.86,37.26,5,42.96,5.18,1.75,10.36,4.61,15.78,4.91l9.45.51c-7.86-2.41-16.71-4.1-22.68-10.85-8.03-9.07-9.03-22.69-4.49-34.05,3.05-7.62,7.29-14.53,11.44-21.5l8.71-14.63,3.63-1.97ZM262.49,339.54l-2.76-10.34c-1.29-4.85-.95-8.99-.68-14.2l.39-7.38-8.28,16.17-3.08,11.08c1.82,12.34,9.75,22.36,22.17,23.86l5.26,2.96,13.51,1.03,14.55-.48c-10.74-2.42-22.07-3.21-30.46-10.33-4.5-3.82-9.04-6.44-10.62-12.37ZM311.87,361.1l-3.03-1.34c-.44-.2-1.78.73-1.33.65l3.02,1.34c.43.19,1.77-.71,1.34-.65Z"/>
        <path class="cls-2" d="M873.16,8.93c-3.74,1.62-1.11,1.85.58,1.36l14.01,16.27c7.31,8.48,14.91,16.86,19.68,26.87,4.51,9.48,7.57,17.93,6.51,28.74-.17,1.68-.98,4.06-2.51,4.42-1.2.28-3.79-.14-4.15-1.35,2.77-17.96-2.39-27.25-10.51-41.67l.21-2.71c.05-.6-2.38-1.05-2.82-1.51l-16.4-17.19-10.31-12.61c3.11-1.44,2.16-1.98-.49-1.4l-10.46-16.1c-4.7-7.24-9.77-14.45-16.9-19.44-3.18-2.22-5.02-4.34-6.93-8.08l.77,3.48-9.04-4.54c-1.08-.54-3.05-2.34-3.28-3.49l-.38-1.87c-.08-.4-1.37.02-1.33.43l.23,2.28-14.16-5.1c-3.91-1.41-7.81-1.78-7.64-7.8l6.95.87,8.07,1.86c8.24,1.9,16.75,1.87,24.73,5.3,10.06,4.32,19.6,8.62,28.17,15.43,12.48,9.91,23.03,21.08,33.61,32.9l9.61,10.74c7.62,8.51,12.36,18.05,15.8,28.89,4.41,13.91,5.16,27.69,1.73,42.04l-2.01,8.44-1.01,3.3c-.23.76-2.8-.7-2.96-1.52l-1.08-5.47c-.1-.5-.18-2.53.31-2.63l3.11-.65-2.66-2.38c1.42-9.23.57-17.53-2.3-26.17-2.23-8-5.6-15.32-11.6-21.33l-14.29-14.29c-7.2-7.2-14.26-13.77-20.89-21.6l-7.6-8.97,5.4,10.35,4.25,5.89ZM921.17,54.86c.25-3.48.22-7.01-.49-8.83-5.07-13.11-12.65-23.29-21.84-33.42l-10.55-11.62-22.63-21.77-6.53-5.17-17.72-9.93c-4.59-2.57-9.87-4.15-14.91-5.57l10.18,5.2,12.89,8.22,9.5,7.83c7.79,6.42,12.87,14.69,19.65,21.97l11.59,12.46,16.68,15.39c4.85,4.47,7.57,11.19,11.15,16.75,1.89,2.94,2.6,5.55,3.02,8.49Z"/>
        <path class="cls-2" d="M497.37,360.58l6.19,3.24c-.47-2.65-.65-4.48-.28-5.85l15.46,3.14,11.59,2.92c-2.77.66-6.64,1.45-8.54.96l-7.95-2.07,8.01,3.86c.99.48,1.35,4.38.9,4.75-1.65-1.88-3.2-3.89-5.22-4.34-1.43-.32-3.67.3-5.75.8-2.07-.36-2.83-1.12-.32-2.6l-4.11,1.08-15.49-4.3,3.73-.89-5.75-2.16.88,3.03-9.57-1.15c-.97-.12-2.3-3.04-2.72-4.03l.63,3.89-28.21.71c-10,.25-19.58,2.18-29.31,4.33l-14.5,3.22c-2-.94-3.96-1.03-5.81.94-17.52,3.29-33.69,9.05-50.28,15.27l-21.22,7.96-27.87,8.71c-12.44,3.89-25.8,3.34-38.85,2.35-16.74-1.28-32.19-6.28-45.88-16.33-5.89-4.33-10.56-11.08-15.06-16.68l1.41-3.62c-1.61,2.12-2.27,2.19-2.77.68-5.22-9.75-7.62-21.45-4.91-31.38,1.91-7,.05-14.28,10.19-15.04l-1.58,3.35-2.54,9.38c-3.18-.66-3.23-.67.05.01l-2.36,9.29c-.55,18.69,9.64,33.6,24.99,42.46,16.22,9.35,33.01,13.65,51.9,13.33,12.89-.22,24.77-1.88,37.16-6l16.55-5.51,21.96-8.28,1.14,1.88c.14.23.74.01.69-.25l-.41-2.18,34.93-14.7,15.76-5.69c.34.52,1.07,1.63,1.01,1.65l1.04-.3c-.07.02-.29-1.9-.06-1.97l13.09-3.84.71-.46,12.55-3.47c.77-.21,2.73-.53,3.43-.26s1.4,1.36,2.19,2.35l-.62-3.18,5.51-.58,19.4-2.24c1.37-.16,3.28.82,4.81,1.72.16-.66.64-1.19,1.27-1.39s1.32-.04,1.85.5c-1.01-.7,2.69-2.16,3.26-1.41s.89,2.3,1.02,3.58c.15,1.48-9.81,4.49-12.55-.34-.22.83-.54,2.54-1.16,2.59l-3.1.26-13.64,1.1c-6.24.51-13.01,2.97-19.02,4.15l-4.36-2.78-.65.63,4.3,3.41,19.84-2.68,9.14-.88c1.45-.14,4.23.44,5.61.83,6.52-1.03,13.65-2.26,20.54-.23,6.06-.94,12.49-.52,17.19,3.97l.45-.61,1.4-1.95c.36-.51,2.64.37,2.74.99l.53,3.14-4.03-1.51-.54.77ZM394.38,364.68c-.09-.27-2.85,1.71-2.14,2.19l2.68,1.81-.55-4Z"/>
        <path class="cls-2" d="M934.58,92.2c1.33,3.75-.04,8-1.55,11.74l-5.38-3.43,4.74-21.41,2.95-1.39c-.04.12-2.46-2-2.42-2.77l.73-16.99c-.89-11.82-2.23-23.08-8.85-32.83-9.53-14.03-20.7-26.57-32.81-38.35l-15.14-14.73-11.72-10.66c-7-6.37-15.86-8.77-24.69-12.1-4.67-1.76-6.47-1.49-6.39-1.3l-.58-1.34c-7.41.07-14.95-1.34-21.65-3.44-2.15,1.49-5.06.87-9.34-.25l4.45-2.34c-2.29.41-5.05.19-7.04-.74,2.97-4.65,7.04-2.31,9.94-.44s5.24.54,8,.35c4.77-.34,9.09.56,15.45,1.43l-3.82,1.74,4.04.76.21-1.39c.36-2.42,4.86,2.07,10.1,1.63l20.66,5.36.16,2.22c.02.34,1.04-.32,1.89-.86,12.87,5.09,25.17,11.27,36.57,19.15l-.8,2.14c-.11.29-.09.67.19.56l2.62-1.05,18.09,15.82c9.59,9.59,17.12,28.22,17.75,41.7.86,18.33.15,35.91-2.33,53.9l-2.7,1.51c1.09.7,2.14,3.44,1.47,4.28l-2.79,3.54ZM934.25,31.74c-.04-21.77-12.1-40.37-29.17-53.37-7.02-5.35-13.3-10.55-21.29-14.35l-17.39-8.27,28.01,25.53,8.74,8.62,12.77,13.4c7.88,8.26,13.2,18.07,18.32,28.44Z"/>
        <path class="cls-2" d="M960.66,107.44l-2.74-6.22,6.05-18.29,13.81-38.54c.64-1.79,2.14-3.2,3.47-3.45-1.54-1.11-2.29-3.61-1.56-5.97,6.23-20,6.99-40.94-.22-60.76-4.88-13.43-20.3-26.66-33.55-33.57-37.2-19.42-67.24-25.77-108.72-26.46l-12.65-.21-17.48,1.11c-17.09,1.08-33.81.88-50.78-1.11l-18.53-3.46c-2.71-.51-4.96-4.05-4.48-6.04.12-.28,3.22.52,2.9.75l-.75.55c2.87-.09,4.58.19,6.46.56l6.71.52c16.99,2.7,33.52,2.93,50.85,2.73l49.21-.58c21.19-.25,41.77,4.14,61.73,10.89l33.17,13.29c8.73,3.5,16.64,9.49,23.6,15.95,14.28,13.26,21.13,32.09,22.33,51.18.61,9.67.25,18.95-2.18,28.18l-6.11,23.18-1.75,5.65-14.04,38.02-2.72,6.35-2.06,5.76Z"/>
        <path class="cls-2" d="M464.2,319.94c.1.37.48,1.54.11,1.63l-2.93.77c-1.14.3-2.02.53-2.4,2.29l19.52-2.82c.98-.14,3.12,3.09,2.62,3.74s-1.62,1.06-2.82,1.15l-8.71.63-15.69,1.21-8.72.23c-1.37,1.44-4.99,1.29-7.1,1.16-3.33,1.37-7.23,1.82-10.19,1.98-4.91,2.69-10.53,3.63-15.88,5.43s-11.27,4.66-17.34,4.14c.21.95.24,2.24-.74,2.51l-4.71,1.28-11.08,4.25c-.64.3-2.32,1.9-2.92,1.55l-4.52-2.62c1.89.91,2.94,2.1,2.61,2.57-.82,1.23-4.36,2.74-5.13,1.86-1.28-1.45-2.65-3.6-.19-5.46l-8.91,1.73c-2.58.5-4.57.29-6.22-1.24.24.37,1.42,1.79,1.02,1.93l-3.09,1.04c-1.91-.26-2.92-.38-3.63-1.02-1.18-1.05-.58-4.48.7-4.61l11.88-1.18c.4-.46,2.38-1.61,2.78-.98l2.19,3.45,5.22-4.94c1.7-1.6,3.48-2.8,6.07-3.2s4.5,1.03,6.22,4.74l-5.34-.23,2.16,1.59,5.19-.75-4.41-6.56,24.99-8.31,12.28-5.1c2.2-.91,4.46-1.6,6.69-1.8l4.5-.42-.23-1.32c-.11-.64,1.9-1.16,2.58-1.18l5.61-1.8c.94,2.68,1.71,1.63,1.44-.84l11.82-3.49c1.04,3.47,1.8,2,1.5-.32l9.83-3.71,1.71,3.07,1.91-4.07c.5-1.06,3.57.27,4.38,1.4,1.28-2.93,3.57-3.67,7.18-4.41,2.08-.43,6.21-3.04,8.08-1.74,3.42,2.37,5.02,1.74,10.08,3.07-7.78,3.09-15.37,5.34-23.18,7.43-1.34-1.87-2.78-3.13-4.29-3.32l2.21,3.2-35.12,9.91c-2.7.76-4.72,1.39-7.21,3.72l6.39.21c1.75-4.82,7.9-3.21,12.13-2.39l-3.44-1.19,7.8-2.67,6.27,2.63-4.25-3.54,7.43-1.8c.63-.15,2.39,1.67,2.36,1.8l.65-2.12c.08-.27.33-.47.55-.27l1.56,1.36.61-.13,2.95-2.67c11.28-3.46,22.74-6.02,34.32-6.43l-5.67,2.92,7.07-.79,1.42-.12c.23-.02.39-.39.19-.54l-2.29-1.69,9.36-1,1.76,5.95c-2.29.85-5.34.9-7.07-1.21-.05,4.25-6.3,2.48-8.71,1.77l-8.09-2.38,7.03,3.14c-4.77.95-8.66.84-12.37.6-4.12,2.13-9.57,4.67-13.87,2.66-1.53.55-4.17,1.04-5.5.27l-.99.42ZM397.37,336.3c-.36-.29-1.98-.6-1.86-.12l.68,2.92c-.09.02,1.68-.44,2.39-.63.57-.15-.72-1.64-1.21-2.17ZM443.19,318.79c-.8-1.13-3.24-1.65-3.54-.95.8,1.11,3.25,1.64,3.54.95Z"/>
        <path class="cls-2" d="M285.29,388.57c2.23.05,6.83-.77,9.28-1.34l36.79-8.65c14.92-3.51,28.4-10.94,42.63-16.93,1.4.57,2.91,3.07,2.84,4.62-16.67,7.52-32.46,15.78-49.94,19.91l-31.42,7.43c-10.61,2.51-21.55,2.01-32.7,2.03-17.18.03-35.38-10.67-47.6-22.88-7.88-8.12-12.59-18.89-10.48-30.2.42-.35,1.92-1.57,1.89-1.56-.03.02-1.01-.81-1.72-1.38l3.3-13.33c.3-1.22,2.61-2.84,3.77-3.26l4.27-1.52-4.3,13.06c-5.86,17.81,3.87,35.02,19.38,44.26,7.73,4.61,16.62,8.91,25.79,9.12l28.22.63Z"/>
        <path class="cls-2" d="M379.96,356.64l-7.89,3.26c-.37.15-2.22-.83-2.4-.46l-.98,1.97-22.28,7.89c-31.55,11.17-79.48,20.43-108.8,4.42l-10.72-5.85c-3.7-2.02-6.33-5.6-8.32-9.31-6.42-11.93,1.39-34.85,8.16-39.56.52-.36,2.41,1.46,1.92,1.85l-2.4,1.9,3.5,1.25c-5.01,6.9-8.58,13.97-8.51,22.38.06,6.72,4.34,13.24,10.03,17.18,17.09,11.84,33.06,14.09,53.65,13.85.92-.01,3.22.62,3.41.73l5.78-.85c17.81-2.63,34.88-7.62,52.34-12.17l5.78-1.5,6.21-2.03,5.97-1.57c-.3.29,1.07-1.55,1.64-1.73l7.16-2.24,5.92-.22.17-.4c-.14-.54-.38-1.87.17-2.08l3.2-1.2,19.95-8.15c8.74-3.57,17.13-7.81,26.5-8.84l19.57-2.15c2.89-.32,5.89.57,7.68,1.62,6.96-1.68,14.7-1.28,21.5-.23l-.54,4.24,1.49-1.96c.32-.41,1.48.26,2.9.72l-3.37-2.82,7.15.39c7.47-.61,15.24-.95,22.88,1.79.67-.29,3.25-1.12,4.05-.32l3.86,3.83-1.93-4.02,8.4.97c1.22.14,3.58,1.06,4.64,1.65.14.08.22.19.49.46.82-1.1,4.17-.87,4.5.31.7,2.85,1.5,4.01,3.35,7-2.49-1.21-4.68-3.75-6.28-6.18l-.87,4.17c-4.59.3-8.28-.87-10.45-3.66-.26.51-1.91,2.27-2.59,2.19l-14.74-1.67-1.94-2.31c-.97,4.32-5.57,2.85-7.53.95l-1.02,1c-2.33,2.27-1.6-3.67-3.09-4.1-.96-.27-3.72-.71-3.44-.44l3.13,1.71c.49.27-.94,1.86-1.58,1.95l-8.57,1.15c-2.98.4-5.52-.11-7.88-1.29-.43.51-2.28,2.58-3.13,2.34l-3.35-.95c-.26-.07-1.76-.56-1.52-.44.36.18.71,2.41.31,2.41h-7.31c-6.28,2.24-14.21,2.17-20.89,4l-32.53,8.93-16.06,6.42c-1.33.53-3.98,1.93-5.12,1.46s-2.68-1.97-4.07-3.3l2.77.06c.42,0,.88-1.57,1.26-1.73l5.69-2.34,16.77-6.7c7.79-3.11,21.24-6.31,21.99-3.41l-.62-2.41,12.37-3.21,12.04-2.73c-3.73-3.32-6.78,1.75-13.88.21-6.36,3.06-13.96,3.09-20.57,5.41l-12.23,4.3-20.31,8.23h-.53ZM526.59,339.73c-.3.08-1.55.88-1.27,1.31l1.63,2.51.45-3.59-.81-.23Z"/>
        <path class="cls-2" d="M456.71,291.39c.62-.17,2.3.5,2.81.79s.3,2.32-.27,2.2l-3.08-.68c-6.09,5.01-15.18,6.72-15.28,4.45-.02-.37.05,1.17.1,2.18l-10.61,2.8-8.9,2.55-15.67,3.32-16.14,2.06c-14.64,2.47-29.94-1.09-43.37-7.4l-4.74-3.95,1.63-.92c.39-.22.4-1.67,0-1.47l-2.97,1.55c-.88.46-9.9-6.84-11.93-14.35l-2.96-10.97c2.66-1.05,4.13-1.64,1.56-.72-.84-.38-2.04-3.61-1.26-4.27l4.07-3.46c2.31,3.31,1.77,8.06,1.69,11.95,1.67,2.31,3.25,6.18,4.42,8.91l10.14,10.6c3.27.54,7.47,2.15,8.41,5.73l3-.86c1-.29,3.2,1.87,3.96,2.73,4.66-.08,10.3.94,14.67,2.69,4.21-.19,9.78-.61,14.6.57l1.3-1.72c.16-.21.66.06.77.31.16.35.35,2.18.59,1.87l1.89-2.53c.41-.56,1.78.25,2.51.4l11.64-1.96,7.77-1.2,5.68-1.67,13.43-3.84,20.57-5.66Z"/>
        <path class="cls-2" d="M870.86,31.64c2.77-1.91.8-1.7-1.29-.71l-9.39-12.61-6.27-9.3c-3.37-5.01-8.1-9.82-10.17-15.69l-3.4-1.94c-1.04-.6-1.21-3.25-1.18-4.35-4.02-.26-5.66-5.14-8.24-6.63l-8.95-5.17-3.16-1.54c-.68-.33-.67-1.36-.89-2.44l-9.85-2.98c-7.7-2.33-15.09-4.85-23.12-6.47-4.7-.94-9.09-1.68-10.9-7.67,3.9-.28,7.05,1.48,10.13,2.19l14.6,3.33c9.21,2.1,24.74,9.11,31.17,14.36l7.67,6.25c4.5,3.67,8.09,8.03,11.51,12.45l8.12,10.48,4,7.56,3.33,4.58,5.61,7.7,6.96,8.3c.35.41,1.91,1.59,1.55,1.97l-2.38,2.48-5.43-4.16Z"/>
        <path class="cls-2" d="M209.29,102.11c2.4,2.07,3.28,4.69,3.09,7.67l-1.47,23.07-.31,13.96c-.31,14.14-2.08,27.59-5.03,41.46l-.64,3.01c-.13.63-1.88.87-2.74,1.04l1.62,1.37c.56.47-.28,2.15-.58,3.09l-4.46,14.38c-.58,1.87-6.4,1.66-7.95.49l5.61-12.74,3.12-11.97c.33-1.25,3.02-.62,2.06-1.43l-1.37-1.16c4.34-18.09,5.63-36.15,5.67-54.85l.2-2.98c.04-.63,1.78-1.18,2.47-1.41-1.7-1.06-2.42-3.72-2.07-6.34l1.13-8.38,1.64-8.27Z"/>
        <path class="cls-2" d="M222.51,157.68c.25-9.8,1.33-18.22,2.94-27.02l4.53,6.5c-2.12,16.19-2.22,31.67-2.42,48.11-.1,8.06-4.68,26.34-6.8,27.98-.82.63-4.29-.2-4.41-1.06.66-1.42,3.16-2.13,5.05-2.26l-2.66-1.58c-.7-.42-.5-2.79-.27-3.63,3.19-11.58,3.44-22.94,3.74-34.92l.3-12.11Z"/>
        <path class="cls-2" d="M217.32,118.95c4.77,3.25,3.25,8.81,2.89,13.45l-2.78,35.94-2.12,18.88c-.35,3.1-1.07,5.53-2.93,7.21,3.37,2.87-.06,6.68-.58,9.4l-1.86,9.67-5.76-1.14,5.65-21.33,2.48-1.44c-1.03-.8-2.37-3.56-1.97-5.16,2.64-10.37,2.48-19.76,3.46-30.19l.44-4.63c.95-10.09,1.43-19.88,3.09-30.67Z"/>
        <path class="cls-2" d="M245.91,269.33c.31-1.6.48-3.54.49-6.81l7.8-.66-2.57-1.26,6.27-2.54,5.14,4.55-2.04,1.22c-.47.28-.05,1.14.46,2.61l-17.42,19.41-6.39,7.1c-2.02,2.25-5.79.91-6.69-1.59l6.04.96-.49-7.16,10-11.62c-1.18-.45-2.97.74-3.55,2.53-.74,2.32-4.67,3.52-5.51,2.14l-.94-4.36c-.34-1.59,3.24-3.2,4.97-3.28l-.59-2.63c-.1-.44,1.42-1.53,1.77-1.25l3.24,2.63Z"/>
        <path class="cls-2" d="M234.52,145.04l4.05,4.7-.67,9.28-2.36.64c-.95.26,1.05.74,1.16,2.07l.54,6.64-4.01-2.18,3.41,2.98-1.55,23.08-.89,11.42c-.09,1.21-.86,3.46-1.84,3.86s-3.94-.15-4.38-.67l1.33-5.99c.12-.52-.22-2.07.23-2.33l2.21-1.23c-2.11-1.3-2.24-3.94-1.67-6.92l1.68-8.89c.36-1.89.38-4.62,1.35-6.34-.48-.56-1.62-3.77-1.42-5.27l1.08-8.18.4-8.49,1.36-8.18Z"/>
        <path class="cls-2" d="M253.07,167.33l-1.88,11.91c-.25,1.59-1.82,2.9-3.6,3.76l2.75.8-1.83,8.26-2.22,9.98c-.18.81-.47,3.58-1.26,3.67l-4.96.6,4.86-23.35,3.33-11.4c-.14-2.61-1.01-5.26,1.25-8.66l.89,4.52.88-1.43c.25-.4,1.85.87,1.78,1.35Z"/>
        <path class="cls-2" d="M514.47,347.95l1.18,5.74c-7.46-.34-15.68-1.58-22.7-3.42-1.55.42-4.03.3-5.59-.05-2.46.97-5.86,1.51-8.69-.38l-2.02,1.08c-.57.31-1.67-1.45-1.6-2.09s.77-2.56,1.35-2.26l2.22,1.15,2.9-1.51c.65-.34,2.3,1.02,2.65,1.35l3.19-1.98c1.89-1.18,7.09,5.55,8.19.29l18.92,2.08Z"/>
        <path class="cls-2" d="M904.99,73.22c-8.31,2.14-10.17-10.78-8.49-10.17.41.15-1.56-.46-2.06-.61l-9.09-13.36-3.14-5.12-6.96-7.54c.61-.62,3.8-2.33,4.62-1.56l3.34,3.16,9.71,11.63,6.47,9.97,5.59,13.62Z"/>
        <path class="cls-2" d="M450.17,301.6c1.21-.57,3.78,1.23,4.93,2.75-4.01,2.81-8.58,4.36-13.34,4.19-.41.89-2.21,3.09-2.99,2.74l-2.61-1.18c-.66,1.68-2.54,3.39-3.92,3.35-1.98-.06-4.35-1.08-5.57-2.95l8.12-2.95,8.65-2.79,6.73-3.16Z"/>
        <path class="cls-2" d="M257.56,192.52c-1.97-1.54-.31-4.96,1.57-6.67l-.27-1.52c-.1-.56.43-2.45.38-1.96l5.31,2.38-7.35,20.4-6.48.36c.5-1.93,1.68-4.17,2.92-4.5l2.14-.58c.63-.17-3.48-4.63-1.2-3.91l2.08.66,1.79.57c.37.12-.34-1.44-.31-1.16l-3.61-1.09c-.68-.2,1.51-2.03,3.04-2.97Z"/>
        <path class="cls-2" d="M910.52,92.2l1.53,2.06c.27.37-1.32,1.18-1.77,1.09l-6.67-1.39-3.58-4.12,3.69-2.49-3.1-2.27c-.81-.59.07-3.36.3-4.19-1-1.94-1.82-5.22-1.77-7.32l5.45.96c1.58,5.33,2.1,11.2-1.41,16.25l7.34,1.42Z"/>
        <path class="cls-2" d="M534.51,352.65l4.03,5.04-10.96-2.38c-1.33-.29-4.29-.39-5.95-.4l-6.2-6.97,8.03,1.14c3.11,6.35,7.13,1.24,14.13,1.62l-3.08,1.95Z"/>
        <path class="cls-2" d="M983.94,125.62l-2,5.75-.06,2.73c-.02.94-4.19.04-4.63-.83-2.1-4.15,1.68-13.37,2.86-13.06l4.15,1.08c1.12.29.07,3.21-.32,4.33Z"/>
        <path class="cls-2" d="M210.83,254.51l-1.91,2c-.29.3-.03,1.47.1,1.78l5.38-2.94c-1.22,4.4-4.33,7.01-9.61,7.25l3.48,1.34c-1.6,1.36-3.78,1.54-6.18.86l-1.61.49c-.36.11-1.8-.2-1.56-.49l1.21-1.51c.3-.37,2.56-.34,2.48-.81l-.48-2.66,5.1.19-2.56-2.33c-.58-.53.75-2.65,1.52-2.72l4.64-.43Z"/>
        <path class="cls-2" d="M902.94,97.6l-2.5-.57c-1.85-.42,2.67-4.12,9.03.6,1.37,1.02.86,6.09-.59,7-2.53,1.58-9.34.42-9.75-2.81-.14-1.05,2.42-3.05,3.16-2.22l3.57,4.02c.62-.56,1.21-3.58.51-4.27s-2.46-1.53-3.42-1.75Z"/>
        <path class="cls-2" d="M495.11,324.99c.31-.24,1.42-1.18,1.22-1.42l-1.85-2.17,3.23-.15c.78-.04,1.3,2.21,1.54,2.81l5.34,1.83-17.21.11-4.12.57c-.93.13-2.36-2.47-1.8-3.27l1.19-1.71c.25-.35,1.62-.59,1.69-.16l.33,2,2.61-2.54c.53-.52,1.72,2.2,2.43,2.42l5.41,1.68Z"/>
        <path class="cls-2" d="M984.82,146.78l7.42,2.78.87,9.73-9.23-4.72,6.62-2.92h-5.34c-1.15.01-.74-4.32-.34-4.89Z"/>
        <path class="cls-2" d="M522.36,325.58l-3.42.67c-1.31.26-3.1.58-4.15.43s-2.46-2.28-3.03-3.24c-.68-.03-1.81-.07-1.52-.06l.95,2.25c.17.39-1.53.9-1.77.55l-1.07-1.6-.88-1.32c-.18-.27-1.41.04-1.31.35l.75,2.4-7.15-2.97c-.51.43.49-2.3,1.15-2.01l3.37,1.43c1.46-.92,4.07-2.02,6.07-1.95,2.62.09,4.44,1.73,5.58,4.29l.51-3.87,5.39,4.18.68-.8c-.76-1.74,1.55-3.18,3.45-2.42,1.13.46,1.91,2.05,2.88,4.45l.85-4.76,1.29,3.66,6.68,3.11c-4.73.31-11.02-.99-14.52-3.23l-.79.46Z"/>
        <path class="cls-2" d="M241.11,233.31c1.66.08,6.32,4.46,5.04,4.38l-2.55-.14-2.36,7.01c-1.47-4.13-.92-3.51-2.83-6.54-1.66-1.49-3.81-2.08-5.88-1.65l-1.63-1.85,5.51-.03c1.11-.36,3.57-1.24,4.71-1.18Z"/>
        <path class="cls-2" d="M995.45,179.93l-7.1-3.24,2.26,3.24-4.46-1.46c-1.39-.46-2.61-7.29-1.14-6.64l2.63,1.18,11.46,5.1c.45.2.12,3.02-.35,2.87l-3.3-1.05Z"/>
        <path class="cls-2" d="M414.38,99.82l-2.96-.73,2.69-2.93c2.48,1.27,3.61,4.25,2.65,6.65-1.46,3.63-2.82,4.88-7.46,4.01l2.52-3.29c-.32-.39-1.54-2.28-.92-2.5l3.49-1.2Z"/>
        <path class="cls-2" d="M271.59,196.45l-1.92,5.5c-.64,1.82-4.94,2.6-7.41,2,1.36-3,2.8-4.58,4.8-5.93l-.5-1.17c-.25-.59.36-2.75.93-2.5l3.58,1.56.45-.47-2.71-1.43c-.72-.38,1.06-5.28,2.48-6.83.74-.81,4.36-.29,4.27.37l-3.99,1.91,3.75,1.26-3.09,5.32-.65.43Z"/>
        <path class="cls-2" d="M202.97,282.15l-.33,4.25-2.6-1.2c-.62-.29-1.13-2.69-.48-2.85l2.86-.71.65-.48-.58-2.01c-.19-.65,1.24-1.44,1.78-1.71l.37-.47,3.59-2.69c0-.19-.27-2.22.3-2.1l2.64.57.82-.65c1.22-.96,3.98-.38,6.09.68l-6.26,1.09-.15-.42,3.05.62-3.75,6.21c-1.16-1.79-1.58-3-2.38-2.91l-3.11.37-.37.66,3.11,3.04-4.52.6-.75.1Z"/>
        <path class="cls-2" d="M176.55,288.6l4.86,1.57.34-1.85c.9-.05,2.34.22,2.14.53s-.86,1.3-1.25,1.64l-8.68,7.6c-.89-.96-.72-3.94.32-4.89.74-.68,1.83-1.05,3.24-1.63l-2.5-1.63c-.28-.18.39-1.01.66-1.2l.86-.14Z"/>
        <path class="cls-2" d="M181.76,288.31l-5.2.28c1.02-1.45,2.84-3.73,3.43-2.97l1.77,2.69Z"/>
        <path class="cls-2" d="M226.09,104.92l-2.03,6.4c-4.54-3.3-3.38-9.02-1.3-13.11l3.33,6.71Z"/>
        <path class="cls-2" d="M189.1,280.64c.27-.15,1.74,1.69,1.28,2.25l-2.04,2.44c-.2.24-1.15.78-1.45.9s-1.28.17-1.18-.13l.6-1.96c-2.19.79-4.81.99-6.22.51l3.3-4.01h5.71Z"/>
        <path class="cls-2" d="M219.26,91.42l-3.07,6.51-2.82-5.41c-.43-.82-.77-3.25.08-3.59l3.42-1.36c.85-.34,2.79,3,2.39,3.85Z"/>
        <path class="cls-2" d="M462.29,300.16c-.53-1.43-1.13-2.45-.6-2.67l2.5-1.07c.55-.24,1.55,2.68,1.42,3.28-.66,3.01-6.11,4.14-9.13,2.82l-2.1-.3c-.44-.06-1-1.89-.56-1.93l3-.28,5.48.15Z"/>
        <path class="cls-2" d="M389.99,77.1l-1.05,3.08c-.3.88-2.42.74-3.79.34l.48,4.67c-3.27-1.71-4.67-3.89-3.23-6.41s3.61-3.25,6.34-2.38l.55-.59-4.2-1.01,3.51-4.01c.85-.98,4.51.66,5.03,1.44l-3.66.36c-.54.05-1.68.81-1.29.85l2.17.28c.45.06,1.82.74,1.49,1.05l-2.23,2.02-.11.31Z"/>
        <path class="cls-2" d="M157.98,291.4l8.2.5-7.02,6.63-1.88,1.58c-.36.3-1.57-.76-1.31-1.15l1.13-1.69c.33-.5-1.56-2.02-1.06-2.38l2.4-1.7-1.4-1.1c-.25-.2.61-.71.94-.69Z"/>
        <path class="cls-2" d="M239.05,104.58c.85,1.81-.05,4.73-1.51,5.64-3.83-3.7-4.93-7.31-1.08-11.15l2.59,5.51Z"/>
        <path class="cls-2" d="M993.87,160.82l-.49,6.46c2.5,1.16-.53,2.68-1.12,1.51l-4.54-1.69c-.87-.33-1.04-2.85-.68-4.12.58.26,2.41,2.3,2.97,1.74l3.86-3.91Z"/>
        <path class="cls-2" d="M397.24,94l-2.62,7.96c-.66.07-3.26-2.01-3.77-3.16-.57-1.29.93-3.77,2.27-4.84.16-.55.3-1.77.73-1.56l3.38,1.6Z"/>
        <path class="cls-2" d="M229.46,84.78l2.86,4.89c.7,1.19-1.28,3.88-2.78,6.19l-3.33-6.47c1.36-.62,2.07-.81,2.19-1.2l1.06-3.41Z"/>
        <path class="cls-2" d="M405.53,91.52l1.19-1.5c.26-.33,1.52-1.17,1.6-.76.49,2.47.08,4.91-1.53,7.19-.64.91-4.27.6-4.64.09l1.09-5.52.37-1.85c.09-.47,1.51-.2,1.63.26s0,2.47.29,2.1Z"/>
        <path class="cls-2" d="M418.88,88.57c.25,1.84-.03,5.88-.37,7.82l-5.33-1.52,2.44-3.35.1-2.86c.02-.67,3.07-.74,3.16-.08Z"/>
        <path class="cls-2" d="M227.44,118.02l2.95-4.57,2.21,4.04c.5.91,1.22,2.5,1.05,3.38-.2,1.05-2.51,3.05-2.97,2.98l-2.77-4.03,4.4-.62-4.87-1.18Z"/>
        <path class="cls-2" d="M240.05,260.17c.09-.18.47.26.2.47l-2.01,1.54.04,1.66c.01.41-1.07,1.29-1.44,1.12l-4.71-2.17,3.56-4.14,4.36,1.52Z"/>
        <path class="cls-2" d="M171.23,279.01l7.54-.35-.56-2.5c-.14-.65,2.87.25,2.61.94-1.41,3.79-7.72,7.44-12.53,4.95l7.84-1.76-4.91-1.28Z"/>
        <path class="cls-2" d="M229.44,269.59l3.11.25c.54.04-.2,2.13-.76,2.14l-7.61.1,2.9-4.52c.74-1.15,3.9-.54,5.04-.07l-2.19,1.05c-.3.14-.35.59-.49,1.05Z"/>
        <path class="cls-2" d="M240.61,207.49c.28-.81,4.5-.48,4.36.39l-.73,4.5c-.17,1.06-2.74.78-5.49.52l1.86-5.42Z"/>
        <path class="cls-2" d="M197.06,254.79l.66,3.89c.22,1.27-2.93,2.2-5.03,1.43l2.67-2.22-4.34-.49,3.94-2.46-.37-1.67c-.12-.53,2.15-1.26,2.21-.72l.26,2.23Z"/>
        <path class="cls-2" d="M220.5,231.83c.86-.95,3.79-1.39,4.69-.72.86.63.57,2.2.15,5.01l-8.36-.4,3.52-3.89Z"/>
        <path class="cls-2" d="M222.8,260.26l6.49-2.85c-1.47,5.23-8.01,5.39-11.35,2.65.03-.24.85-1.7,1.31-1.48l3.55,1.68Z"/>
        <path class="cls-2" d="M317.15,238.11l3.3-1.3c.55-.22,1.3.83,2.48,2.14-1.31,1.35-4.41,3.18-6.2,3.01-.68-.06-3.08-2.25-2.47-2.53l2.88-1.32Z"/>
        <path class="cls-2" d="M277.83,193.99l5.1,2.29-1.71,4.35c-.22.57-1.96,1.83-2.39,1.4l-2.66-2.71,2.62-.89c-.76-1.36-.95-2.01-.97-4.44Z"/>
        <path class="cls-2" d="M634.09,357.01l-3.39-5.39-.99,2.85c-.12.36-1.19.45-1.31.1l-.56-1.63-1.47-.92c-.29-.18-1.06-1.55-.71-1.55l2.36.02,7.11.88-1.03,5.64Z"/>
        <path class="cls-2" d="M420.59,79.58l2.8.9c.55.18-1.41,1.77-1.5,2.34l-1,6.54-1.37-3.67c-.2-.53-.88-.42-2.5-1.21l3.4-1.92-2.1-1.19c-.36-.21-.72-1.87-.31-1.92.62-.08,1.98-.07,2.58.12Z"/>
        <path class="cls-2" d="M313.58,263.59c3.2-.65,5.64,3.43,4.43,7.29l-3.73-1.81c-1.35-.65-2.01-5.21-.7-5.48Z"/>
        <path class="cls-2" d="M423.74,75.88l-1.93-5.23c2.59,1.04,4.24,2.5,3.98,4.22-.45,3.03-3.69,4.61-5.34,4.22-.64-.15-1.7-2.8-1.09-2.94.81-.19,1.46-.22,4.38-.27Z"/>
        <path class="cls-2" d="M261.32,179.81l5.03.42-2.34,2.76c-.64.76-3.37-.31-3.82-1.19-1.51-2.95,1.93-7.5,2.23-7.26l2.32,1.91c.53.43-.29,1.36-3.42,3.36Z"/>
        <path class="cls-2" d="M980.09,143.93c-.09.64-1.35,1.91-1.75,1.96s-1.54-.31-1.44-.69l.5-2.02.39-1.55c.02-.06-1.33-.27-2.24-.43-1.38-1.27-.88-2.65,1.31-1.38l4.4-4.21-1.16,8.32Z"/>
        <path class="cls-2" d="M523.92,313.65c.88-.43-1.35.65-2.04.98s-2.26-.84-2.78-1.42l-3.66-4.09c.58-.69,3.55-.55,4.18.51.75,1.25,1.96,2.35,4.3,4.03Z"/>
        <path class="cls-2" d="M223.82,73.1l3.14,5.78c.28.51-.97,3.19-1.51,2.97l-2.79-1.17-1.07-2.48c-.28-.64,1.34-1.02,2.65-1.36l-1.32-1c-.4-.3-.28-.69.9-2.73Z"/>
        <path class="cls-2" d="M236.19,242.3c.54,0,2.16,1.32,1.76,1.32h-2.65s-2.9.04-2.9.04c-.6.01-.68,1.28-.87,2.2l-4.78-1.05c.06-.48,1.62-2.46,2.38-2.47l7.06-.05Z"/>
        <path class="cls-2" d="M974.46,141.76c1.17,3.2,1.98,5.17,3.57,8.11.21.49-2.65,2.02-3.1,1.24l-2.19-3.79,1.72-5.56Z"/>
        <path class="cls-2" d="M407.71,81.56l2.25,6.39-6.11-.32,2.99-6.68.21-.56c.09-1.14.9-2.6,2.45-4.94.07-.32,2.47,1.1,2.41,1.81l-.34,3.75c-.18.85-.61,2-1.1,1.7l-2.38-1.47-.39.31Z"/>
        <path class="cls-2" d="M158.51,310.27l.54,4-.89,1.71c-.21.4-1.97,1.31-2,.86l-.23-3.2c.14.07-1.81-.86-3.06-1.44-.07-.48.91-2.66,1.75-2.7l3.43-.13.75-.33-3.31-1.9c2.11-1.34,4.36-.94,6.51.85l2.47,1.87h-5.1s-.85.42-.85.42Z"/>
        <path class="cls-2" d="M268.63,241.73c0,.11-.17,1.3-.5,1.26l-2.4-.27c-.49-.05.41-2.07.9-2.03l1.57.15.49-.21s.23-1.18.43-1c.29.27,1.58,1.3,1.97,1.24l6.18-.93c.07.36-.79,2.52-1.22,2.38l-2.05-.67-.25,3.16c-.06.7-3.04.15-2.92-.5.15-.76.36-1.95,0-2.18l-1.59-.99-.6.59Z"/>
        <path class="cls-2" d="M222.49,278.89l-3.38,1.16c-.53.18-.13,1.36.25,1.75l2.52,2.59-7.16-3.23,3.55-3.5c.69-.68,4.08.6,4.22,1.24Z"/>
        <path class="cls-2" d="M231.89,212.88c-.94,1.26-5.37,1.25-5.42.04.81-2.04,1.49-3.53,2.31-4.17,1.42-1.11,5.17,1.39,3.11,4.14Z"/>
        <path class="cls-2" d="M308.71,234.55l5.71-.18-4.2,4.11-1.67,1.63c-.4.39-2.37-.47-2.39-.67l2.56-4.9Z"/>
        <path class="cls-2" d="M217.97,236.64l6.47.82c-1.27,2.46-5.68,2.94-7.71,2.08-.52-.22-1.38-2.05-.91-2.28s1.66-.69,2.16-.63Z"/>
        <rect class="cls-2" x="355.48" y="94.26" width="5.93" height="4.51" transform="translate(596.69 381.18) rotate(-145)"/>
        <polygon class="cls-2" points="931.94 150.29 937.45 153.02 933.9 154.21 927.26 148.01 933.63 148.79 931.94 150.29"/>
        <polygon class="cls-2" points="263.22 208.64 264.01 214.2 257 212.26 263.22 208.64"/>
        <path class="cls-2" d="M384.6,87.33l-2.91,2.57c-.79.69-3.85-.06-4.33-.61l3.47-3.95c.78-.89,3.09.96,3.77,1.99Z"/>
        <path class="cls-2" d="M410.65,110.41c1.02.67,2.81,1.81,2.54,2.47l-1.44,3.58-4.38-4.67.97-2.47c.18-.45,1.25.42,2.3,1.1Z"/>
        <path class="cls-2" d="M517.08,285.38l-2.06,1.55-5.3-4.15c2.82-.12,4.65.45,6.43,1.59l.27-.29-1.13-1.1c-.29-.28,1.33-1.65,1.74-1.61,1.86.2,5.68,1.76,7.05,4.15l-6.71-.42-.28.29Z"/>
        <path class="cls-2" d="M181.36,265.92c2.72,1.03,4.16,2.51,5.25,4.09l3.02-2.02c-1.64,4.26-5.34,7.49-9.93,6.7l5.99-3.65c-2.26-2.24-2.37-2.13-4.32-5.12Z"/>
        <path class="cls-2" d="M187.93,233.21c-2.85,1.65-6.49,1.48-9.03.39,3.03-2.58,6.76-2.26,9.03-.39Z"/>
        <rect class="cls-2" x="369.79" y="102.77" width="5.76" height="4.15" transform="translate(627.16 396.58) rotate(-146.81)"/>
        <path class="cls-2" d="M1032.5,225.42l4.26,2.38c-.29.67-2.5,2.67-3.09,2.15l-3.14-2.78c-.39-.34-1.16-1.47-1.43-1.92s1.3-2.04,1.66-1.66l1.74,1.83Z"/>
        <path class="cls-2" d="M1025.62,217.49c1.42.06,3.69.71,4.6,1.3s.46,4.45-.55,4.08l-3.69-1.32c-.97-.35-1.47-4.11-.36-4.06Z"/>
        <path class="cls-2" d="M529.09,372.17l2.67-.03c.62,0-.4,2.15-.58,2.74s-1.8-.76-2.24-1.23l-2.81-1.19c-.67-.28-.23-2.93-.1-3.24l-3.39-2.12c1.23-.46,3.06-.86,4.02-.66,2.25.46.17,5.75,2.43,5.73Z"/>
        <path class="cls-2" d="M319.25,257.68c-.66.78-4.06,1.46-4.86.63-1.16-1.2-.34-4.19,1.95-3.84,1.25.19,1.96.3,2.91,3.2Z"/>
        <path class="cls-2" d="M230.91,67.43c1.25,1.26,3.52,4.32.36,6.29l-3.3-6.15c-.25-.54,2.46-.63,2.94-.14Z"/>
        <path class="cls-2" d="M412.44,57.49l-3.13,3.89-2.68-4.48c1.35-1.46,5.14-.86,5.81.59Z"/>
        <path class="cls-2" d="M183.41,236.83l-7.48,1.27c-.37.06-1.65-.07-1.98-.15-.49-.12-.96-1.5-.52-1.73l1.97-1.01,8.01,1.61Z"/>
        <path class="cls-2" d="M635.43,325.96c-.83.23-2.78-.56-3.5-1.09l-3.03.78c-1.14-2.78-1.53-3.5-2.71-5.29-.71,1.01.61-1.37.97-1.05l2.38,2.14c1.43,1.29,4.77,2.59,5.89,4.5Z"/>
        <path class="cls-2" d="M580.51,293.03l-1.58,3.19c-2.62-1-4.97-1.99-6.77-4.98l8.36,1.79Z"/>
        <path class="cls-2" d="M177.99,261.84c-2.96,3.55-5.12,5.69-8.81,5.21-.85-1.55.63-4.69,2.02-5.54,1.8-1.1,5.27-.43,6.79.33Z"/>
        <path class="cls-2" d="M624.35,333.67l.47,4.4c.16.74-3.4,1.12-3.76.19s-.68-2.57-.51-3.55,3.74-1.51,3.8-1.04Z"/>
        <path class="cls-2" d="M964.76,176.69c3.16,2.16,3.92,2.09,3.93,5.51-2.01-.52-3.75-1.65-6.41-3.85l2.48-1.66Z"/>
        <path class="cls-2" d="M927.31,105.61l.58,8.7c-1.63-1.66-2.82-2.88-3.3-3.92s1.05-3.61,2.72-4.78Z"/>
        <path class="cls-2" d="M162.34,273.63c-.12.93-.5,1.95-1.12,2.5-.97.86-4.09.86-4.44-.53-.27-1.05,2.47-2.56,3.52-2.76l1.32-.39,1.18-2.84c.3-.72,2.55-.55,4.24-.18-.67,1.63-2.97,3.33-4.83,3.79l.13.42Z"/>
        <path class="cls-2" d="M612.76,366.38c-1.4-.77-3.49-3.62-4.37-5.74,3.56-.37,5.58.74,4.37,5.74Z"/>
        <path class="cls-2" d="M200.77,269.31l-.04,1.84c0,.29,0,1.28-.22,1.09l-1.85-1.62-6.37.43,1.53-1.75,2.17.4,2.12-1.55c.61-.44,2.68.31,2.67,1.15Z"/>
        <path class="cls-2" d="M526.99,310.33c1.58.87,2.6,1.73,2.14,4.59l-6.29-6.06,6.03-.64-1.88,2.12Z"/>
        <path class="cls-2" d="M544.87,345.08l.69,2.72c.21.82-4.05.25-4-1.42l.1-3.19c.02-.6,1.76-.81,2.12-.34s.94,1.64,1.09,2.24Z"/>
        <path class="cls-2" d="M404.18,104.56l-3.03-6.01c.26-1.02,3.11-.8,3.89.2,1.23,1.59.55,4.45-.85,5.81Z"/>
        <path class="cls-2" d="M234.44,282.76c-3.82,1.7-5.12,1.53-7.25.49,1.11-1.38,2.43-2.81,3.18-2.45l4.07,1.96Z"/>
        <path class="cls-2" d="M635.2,342.14l.69-2.99c.16-.69-.78-1.29-2.41-3.06l4.4.28c1.76,3.31,1.66,5.48-2.68,5.77Z"/>
        <path class="cls-2" d="M606.35,357.54l.67,6.85c-1-.61-2.78-2.55-3.05-3.69l-.54-2.3c-.1-.42,1.34-.62,2.91-.85Z"/>
        <polygon class="cls-2" points="249.67 209.04 254.48 212.9 246.97 213.64 249.67 209.04"/>
        <path class="cls-2" d="M507.64,283.55l4.34,2.61c-3.62,1.35-6.95-.52-10.08-3.78,2.23.06,4.62.5,5.75,1.17Z"/>
        <path class="cls-2" d="M397.55,60.8l2.52,2.69-3.68,2.27c-.97.6-3.61-.74-4.26-1.82l4.94.38.49-3.52Z"/>
        <path class="cls-2" d="M502.11,306.17c-2.81.96-5.46,1.44-9.16,1.63,2.4-2.23,4.56-4.78,9.16-1.63Z"/>
        <path class="cls-2" d="M279.97,234.04c.83-.65-.92,2.74-1.92,2.68l-4.53-.28-2.37-.26c-.32-.04-.41-.46-.14-.66,2.12-1.56,3.22,1.11,8.96-1.48Z"/>
        <path class="cls-2" d="M242.43,114.18l2.97,3.55c.71.84-.6,3.19-1.61,4.39-1.79-2.83-2.11-3.45-1.36-7.93Z"/>
        <path class="cls-2" d="M502.86,285.5c-3.42,1.41-3.65.97-6.71-.42-.61-.6-.59-.99,1.31-3.05l5.4,3.48Z"/>
        <path class="cls-2" d="M409.79,70.22l4.9,2.75-3.43,1.38c-.51.2-2.77.07-2.61-.46l1.14-3.68Z"/>
        <path class="cls-2" d="M155.19,276.36c.33.3,2.16,2.36,2.98,2.06l4.16-1.52c-.41,2.11-3.87,3.41-6.33,2.91l-2.58-.53c-.47-.1.77-1.71,1.77-2.93Z"/>
        <path class="cls-2" d="M194.43,294.45c.87.99,1.72,1.97,1.54,1.76-1.59,2.1-1.76,2.64-2.38,2.64h-4s4.83-4.4,4.83-4.4Z"/>
        <path class="cls-2" d="M302.94,257.1c-1.14,1.25-4.78.7-4.72-.57l.22-4.31,4.5,4.88Z"/>
        <polygon class="cls-2" points="296.46 256.97 302.66 261.97 296.02 261.52 296.46 256.97"/>
        <polygon class="cls-2" points="945.23 117.45 947.1 123.31 941.46 120.87 945.23 117.45"/>
        <path class="cls-2" d="M287.61,238.91l7.09,1.9-8.39.36c-.42.02.84-2.39,1.3-2.26Z"/>
        <path class="cls-2" d="M486.17,291.12c-1.4,2.57-2.9,4.05-3.81,3.61l-5.38-2.58,9.18-1.03Z"/>
        <path class="cls-2" d="M926.84,123.13c-.15.59-1.16,2.1-1.53,1.71s-1.28-1.58-1.45-2.07l-.91-2.58c-.22-.62,2.79-.77,2.98-.14l.91,3.08Z"/>
        <path class="cls-2" d="M196.45,316.4l-6.07-2.49c.98-1.68,5.67-3.17,6.07,2.49Z"/>
        <rect class="cls-2" x="960.48" y="117.01" width="4.67" height="3.75" transform="translate(1840.8886 531.3494) rotate(-161.8776)"/>
        <path class="cls-2" d="M594.68,365.9l4.32,5.68-3.24-1.3c.15,0-1.44.05-2,.08-.4.02-1.19-1-.98-1.34l1.91-3.12Z"/>
        <path class="cls-2" d="M398.23,87.45l-1.99.66,1.9,1.62c.63.54-.25,2.6-.81,3.26-1.93-2.67-2.52-4.42-2.79-7.12l2.73.48.48-.02-.9-.78c-.42-.36-1.52-1.9-.98-2.02l2.54-.57c0-.23.02-.45.01-.34l-1.3-3.96,4.28,2.43c.59.33-1.66,2.27-1.73,2.01l-.55.58.75,1.83c.18.45-.91,1.26-1.18,1.42l-.46.53Z"/>
        <path class="cls-2" d="M908.94,90.36l.1-2.74c.03-.89,4.21-.35,3.98.51l-1,3.74c-.22.83-2.55-.82-3.09-1.51Z"/>
        <path class="cls-2" d="M171.95,298.78c-.03-.28.13,1.38.23,2.39.07.76-1.87,1.93-2.48,1.47l-3.07-2.29,5.32-1.57Z"/>
        <path class="cls-2" d="M505.27,270.99c1.58-.14,4.56,1.44,6.13,2.88l-4.8.07-1.93.03c-.56,0,.08-2.93.61-2.97Z"/>
        <polygon class="cls-2" points="314.71 247.99 312.73 252.96 310.56 247.32 314.71 247.99"/>
        <rect class="cls-2" x="952.49" y="116.34" width="3.26" height="5.11" transform="translate(1433.9508 952.1101) rotate(-127.0398)"/>
        <path class="cls-2" d="M954.84,175.2l-4.79-5.04,4.41.59c.85.11,1.35,1.22.38,4.45Z"/>
        <path class="cls-2" d="M336.42,232.65c.3.74-2.84,1.62-3.46,1.14l-2.45-1.91,3.68-1.46c.72-.28,1.76,1.06,2.23,2.24Z"/>
        <path class="cls-2" d="M616.23,336.64c-3.01-.34-5.18-1.73-7.34-4.51,2.99.58,5.5,2.07,7.34,4.51Z"/>
        <path class="cls-2" d="M577.49,350.86l4.23,2.57c-1.37.47-2.16.67-2.49.93l-2.72,2.14.99-5.63Z"/>
        <path class="cls-2" d="M1008.79,197.32l-3.25-2.98-2.01.37c-.47.09-.99-.93-1.49-1.82l4.83.45c.98.09,1.75,2.05,1.91,3.97Z"/>
        <path class="cls-2" d="M918.73,96.85c.86,2.9.58,3.29,1.04,3.67l2.86,2.41-5.76-.97,1.86-5.11Z"/>
        <path class="cls-2" d="M194.79,274.97c1.26-.05,2.65.7.2,1.4-.95.66-3.87.36-3.79-.53l.26-2.97,3.33,2.1Z"/>
        <path class="cls-2" d="M921.64,146.34l-8.39.23c2.35-1.37,4.97-3.4,8.39-.23Z"/>
        <polygon class="cls-2" points="371.01 75.78 374.03 80.56 368.05 78.68 371.01 75.78"/>
        <path class="cls-2" d="M211.77,294.35l-7.53-1.78c3.14-2.28,5.89-.78,7.53,1.78Z"/>
        <path class="cls-2" d="M263.03,233.83c-1,1.14-3.05,2.71-3.82,2.31s-1.48-1.07-3.19-2.56l7.01.25Z"/>
        <polygon class="cls-2" points="428.1 54.06 431.64 58.75 426.29 58.87 428.1 54.06"/>
        <path class="cls-2" d="M1083.5,325.98l-6.82-2.25,3.96-1.41c1.04-.37,2.64,2.45,2.85,3.66Z"/>
        <path class="cls-2" d="M189.59,317.52l5.26,2.38-4.49.77-2.21-1.03c-.69-.32.65-2.48,1.44-2.13Z"/>
        <path class="cls-2" d="M182.3,305.33l-4.88-1.21,3.71-2.17c.69-.4,1.19,2.51,1.17,3.38Z"/>
        <path class="cls-2" d="M963.41,149.11l5.67,1.11-3.29,1.63c-1.12.56-3.45-2.94-2.38-2.74Z"/>
        <path class="cls-2" d="M172.1,295.97c-.72.67-2.98,1.73-4.52,2.23-.67-2.28,1.57-5.74,4.52-2.23Z"/>
        <path class="cls-2" d="M945.46,148c-.73-.08,1.71-.58,1.9-.02l1.12,3.22c.27.76-2.54,1.55-2.84,1.22l-.18-4.42Z"/>
        <path class="cls-2" d="M232.67,314.82l1.26,2.24c.31.56-1.24,2.42-1.58,1.88l-1.56-2.44-.8-1.58c-.15-.3.59-1.04.87-1.2.43-.26,1.54.62,1.8,1.1Z"/>
        <path class="cls-2" d="M209.7,236.88c.56-.03,1.37,2.47.8,2.57l-3.1.56c-.58.1-1.24-1.66-1.39-2.21s2.62-.87,3.69-.92Z"/>
        <path class="cls-2" d="M204.93,311.91l3.71,2.4c.65.42-.05,2.7-.39,3.17-2.04-1.96-3.23-4.01-3.33-5.57Z"/>
        <path class="cls-2" d="M996.51,174.8l-6.3-3.95,4.75-.72c.92-.14,1.62,2.69,1.55,4.67Z"/>
        <path class="cls-2" d="M995.24,184.38c-.38-.55.68-2.77,1.27-2.72.79.06,3.22,1.02,2.85,1.73l-1.2,2.3c-.39.75-2.13-.13-2.93-1.31Z"/>
        <path class="cls-2" d="M936.64,124.18l-5.08.16c.35-1.31,1.43-2.96,2.41-3.08s3.19,2.55,2.66,2.93Z"/>
        <path class="cls-2" d="M934.51,135.55l-5.48-3.42c2.62-2.3,5.84-.12,5.48,3.42Z"/>
        <path class="cls-2" d="M955.61,163.99c.75.08-.69,3.61-1.36,3.2l-3.01-1.81c-.14-.4-.26-1.88.16-1.83l4.2.45Z"/>
        <rect class="cls-2" x="954.53" y="192.64" width="5.53" height="2.37" transform="translate(1211.8128 1136.7995) rotate(-116.5507)"/>
        <path class="cls-2" d="M1043.97,321.67l2.11-.34c.47-.08,1.16,1.05,1.54,1.65l-4.85,1.18-1.2-1.59c-.22-.29.15-1.42.5-1.33s1.59.48,1.9.43Z"/>
        <path class="cls-2" d="M373.15,142.59l2.61,4.49c-1.63-.3-4.36-1.89-5.21-3.05-.28-.38,2.37-1.83,2.6-1.44Z"/>
        <path class="cls-2" d="M972.52,161.1l-.77-3.45c-.14-.64,2.14-.46,2.47.1l1.21,2.07c.43.74-2.72,2.11-2.9,1.28Z"/>
        <polygon class="cls-2" points="606.7 343.33 608.51 349.1 604.76 347.24 606.7 343.33"/>
        <path class="cls-2" d="M236.92,78.31l.61,2.16c.17.6-1.26,1.93-1.64,1.43l-1.66-2.21c-.21-.28-.5-1.63-.28-1.88l1.4-1.59c.34-.38,1.42,1.6,1.56,2.09Z"/>
        <path class="cls-2" d="M155.38,318.28l-7.23-1.07,3.45-2.23c.87-.56,2.87,1.19,3.78,3.29Z"/>
        <path class="cls-2" d="M356.33,55.08c.29-.06.33,3.3-.56,3.48l-4.98.98,5.54-4.46Z"/>
        <path class="cls-2" d="M597.67,275.7l1.48.82c.44.25.66,2.15.18,1.97l-2.52-.98-2.02-1.1c-.46-.25.51-1.47.99-2.07.44-.55,1.4.71,1.89,1.37Z"/>
        <path class="cls-2" d="M935.42,124.98c.63,1.78.95,2.77,1.02,3.67.08,1.06-1.93,1.74-3.76,1.11l2.75-4.78Z"/>
        <path class="cls-2" d="M952.34,151.31l2.97,1.32c.56.25.29,2.05-.32,1.9l-3.74-.94c-.75-.19.41-2.6,1.1-2.28Z"/>
        <path class="cls-2" d="M580.87,362.57c3.3,2.74,4.27,3.7,5.27,6.27l-5.43-4.36c0,.06.13-1.59.16-1.9Z"/>
        <path class="cls-2" d="M576.43,365.78l-6.37-3.26c2.88-1.36,5.21.63,6.37,3.26Z"/>
        <path class="cls-2" d="M189.87,295.78l-1.8,2.27c-.37.47-2.93-.34-2.84-.93.1-.64,1.29-2.33,1.92-2.14l2.73.8Z"/>
        <path class="cls-2" d="M470.29,298.29c.31-.36-1.08,1.27-1.61,1.88-.6.7-2.95-1.2-3.02-2.12-.04-.47.89-1.8,1.31-1.57l3.33,1.81Z"/>
        <path class="cls-2" d="M187.39,301.8c.33.32,1.51,1.66,1.16,1.7s-1.51.29-1.85.23l-2.58-.46c-.51-.09,0-2.22.5-2.1l2.76.63Z"/>
        <path class="cls-2" d="M147.2,286.04l3.35,2.55-7.15-.87,2.87-2.43.76-.6c1.06-.84,4.25.02,5.18,1.55l-4.65-.51-.36.31Z"/>
        <path class="cls-2" d="M451.07-.14l-.61,1.16c-.16.31-1.76-.54-1.78-.87l-.19-2.88c-.05-.7,2.55-.62,2.63.09s.03,1.54-.05,2.51Z"/>
        <path class="cls-2" d="M216.1,267.59l2.38,1c.48.2.14,2.43-.36,2.27l-2.51-.84c-.3-.1-1.05-1.1-1.16-1.39-.18-.43.98-1.33,1.66-1.04Z"/>
        <path class="cls-2" d="M895.83,137.73c-1.03.93-3.13,1.52-3.6.93l-2.33-2.93,5.93,1.99Z"/>
        <path class="cls-2" d="M380.36,71.33l-3.32-3.9c.08-.16,1.93-.1,3.21.17,1.14.24.66,3.21.11,3.73Z"/>
        <path class="cls-2" d="M263.44,90.76c.29.4.48,2.15.04,2.04l-1.96-.52c-.53-.14-2.25-1.43-1.86-1.82l1.68-1.66c.38-.38,1.65,1.34,2.1,1.95Z"/>
        <circle class="cls-2" cx="1025.13" cy="235" r="1.91"/>
        <path class="cls-2" d="M330.31,245.93c-.2.87-.7,2.17-.28,2.4l2.34,1.33c-1.52.4-3.71-.1-5.36-1.57l3.3-2.16Z"/>
        <path class="cls-2" d="M1026.33,324.98c.56.37.26,2.87-.36,2.75l-4.78-.96,5.14-1.79Z"/>
        <path class="cls-2" d="M1020.17,208.53c-1.77,1.5-4.65.95-5.49-.85,1.82-.37,4.63-.05,5.49.85Z"/>
        <path class="cls-2" d="M918.24,115.64c-2.59.17-4.55-.75-6-2.58,2.58-.17,4.55.75,6,2.58Z"/>
        <path class="cls-2" d="M257.85,138.76l.47,4.96c-2.45-2.13-3.28-3.99-3.42-6.83.65.1,2.88,1.27,2.94,1.87Z"/>
        <rect class="cls-2" x="597.29" y="357.17" width="4.91" height="2.32" transform="translate(329.7792 1002.6991) rotate(-98.1251)"/>
        <path class="cls-2" d="M271.46,109.13l-2.48-3.86c.38-.87,2.94-.91,3.01.07.11,1.48-.01,2.29-.53,3.79Z"/>
        <path class="cls-2" d="M1039.79,235.36l1.65,5.39c-1.38-.9-1.98-1.52-3.67-3.82.36-1,1.52-1.72,2.02-1.56Z"/>
        <path class="cls-2" d="M372.26,173.47l1.84,1.78c.49.47-1.44,2.64-1.86,2.11l-1.8-2.31-.54-1.99c-.13-.5,1.99.07,2.35.42Z"/>
        <path class="cls-2" d="M401.47,102.2l1.53,3.09c.31.63-2.41,1.77-2.68,1.11l-1.05-2.59c-.27-.67,1.86-2.29,2.2-1.61Z"/>
        <path class="cls-2" d="M966.66,141.76l.89,2.61c.18.52-1.05,1.46-1.43,1.06l-1.66-1.75c-.25-.27.1-1.91.25-2.23.21-.5,1.78-.21,1.95.31Z"/>
        <path class="cls-2" d="M1041.3,296.08l3.34,4.93c-3.9.25-4.04-2.65-3.34-4.93Z"/>
        <path class="cls-2" d="M944.21,158.87c-.23-.42-.17-2.71.45-2.61l2.63.41c.62.1.34,1.87.13,2.88-.18.88-1.73.13-3.21-.68Z"/>
        <polygon class="cls-2" points="472.71 285.17 471.71 290.12 465.68 286.63 472.71 285.17"/>
        <path class="cls-2" d="M155.69,281.54l-6.36-.32c2.02-2.14,3.54-1.82,6.36.32Z"/>
        <path class="cls-2" d="M414.4,55.1l-5.89-1.32c1.42-2.29,4.65-1.22,5.89,1.32Z"/>
        <path class="cls-2" d="M162.27,304.4l1.96-1.49c.47-.35,1.6.36,1.89.88s.13,2.8-.38,2.52l-3.47-1.91Z"/>
        <path class="cls-2" d="M231.6,288.99l-5.39.38c.83-2.22,3.56-3.29,5.39-.38Z"/>
        <path class="cls-2" d="M190.73,264.72c.13.49-1.95,2.15-2.57,1.71l-2.86-2,5.43.28Z"/>
        <polygon class="cls-2" points="226.68 296.22 230.78 299.56 225.22 298.88 226.68 296.22"/>
        <path class="cls-2" d="M402.08,70.17c.84-.94,1.53-1.66,1.77-1.21l1.24,2.3c.24.45-1.56.98-2.17.84-1.79.04-3.4-1.25-.84-1.93Z"/>
        <path class="cls-2" d="M371.9,57.66c-1.96.43-4.04.75-5.59.65.95-2.43,4.16-2.23,5.59-.65Z"/>
        <path class="cls-2" d="M397.26,50.42l-2.96,1.62c-.82.45-2.31-.61-3.28-1.68l6.24.06Z"/>
        <path class="cls-2" d="M207.59,319.39l-3.99.61c-.66.1-.16-3.5.42-3.13.95.61,3.35,2.31,3.56,2.52Z"/>
        <path class="cls-2" d="M615.9,348.53c-.95,1.27-3.52-.93-3.27-2.8.9-.22,3.44,1.47,3.27,2.8Z"/>
        <polygon class="cls-2" points="302.99 248.6 304.53 252.62 299.58 250.28 302.99 248.6"/>
        <path class="cls-2" d="M942.16,136.37l-.63,3.32c-.14.74-2.06-.18-3.51-1.52l4.14-1.8Z"/>
        <path class="cls-2" d="M306.01,242.29l2.49,1.52c.38.23-.38,2.02-.78,1.82l-2.04-.99c-.33-.16-1.17-1.09-1.41-1.38-.36-.43,1.27-1.27,1.74-.98Z"/>
        <path class="cls-2" d="M1033.97,316.96c-2.59,1.13-5.39-.32-5.56-2.74l5.56,2.74Z"/>
        <path class="cls-2" d="M931.97,163.36l3.08,3.1c.43.44-1.74,1.51-2.57,1.62l-.51-4.72Z"/>
        <path class="cls-2" d="M388.46,60.84c-.66.98-1.76,2.61-2.58,2.42l-4.39-.98,6.97-1.44Z"/>
        <path class="cls-2" d="M275.46,212.92l-6.03,1.2c.63-2.8,4.25-2.4,6.03-1.2Z"/>
        <path class="cls-2" d="M261.1,71.63c2.24,1.02,2.75,1.35,3.26,1.38l2.55.13c.47.28-2.53,1.56-3.41,1.34-1.05-.26-2.09-1.98-2.41-2.85Z"/>
        <path class="cls-2" d="M392.86,151.39l-2.34-3.91c.47-.42,2.3-.02,2.94.58.68.65.03,3.14-.6,3.33Z"/>
        <polygon class="cls-2" points="622.49 347.23 623.48 353.02 622.09 353.07 621.13 347.27 622.49 347.23"/>
        <path class="cls-2" d="M910.84,117.68l1.11,1.91,1.15,1.98-3.76-.36c-.78-.08.75-2.58,1.5-3.53Z"/>
        <path class="cls-2" d="M582.4,282.62l4.7,3.77-3.7-.5c-.79-.11-1.08-2.09-1-3.27Z"/>
        <path class="cls-2" d="M650.12,355.32l-3.11-3.86c1.55-.91,4.61,1.39,3.11,3.86Z"/>
        <path class="cls-2" d="M228.05,251.57c.14,1.53-3.61,1.58-3.82.07-.1-.82,3.45-.86,3.82-.07Z"/>
        <path class="cls-2" d="M955.9,183.02c-1.14.2-2.86.45-3.01-.13l-.96-3.7,3.98,3.83Z"/>
        <path class="cls-2" d="M386.39,1.77l-1.96-.88-2.07-.84c-.09.04,1.66-.68,2.81-1.15.74-.3,1.36,2.05,1.22,2.87Z"/>
        <path class="cls-2" d="M533.57,370.35l-2.17-4.98,3.21,2.04c.7.44-.89,2.72-1.05,2.94Z"/>
        <path class="cls-2" d="M1069.69,284.2c-2.21.54-3.85.12-4.92-1.2,2.21-.54,3.85-.12,4.92,1.2Z"/>
        <rect class="cls-2" x="544.15" y="325.84" width="3.05" height="2.94" transform="translate(760.06 926.42) rotate(-140.65)"/>
        <path class="cls-2" d="M227.62,276.2c.65-.34-.52.9-1,.75l-2.69-.88c.47-2.62,1.73-3.04,3.69.13Z"/>
        <polygon class="cls-2" points="951.69 204.04 949.7 206.99 945.65 203.47 951.69 204.04"/>
        <path class="cls-2" d="M236.97,59.01l2.93,4.87c-.92.25-3.93,0-3.76-.82l.83-4.05Z"/>
        <path class="cls-2" d="M238.51,129.07l1.93,2.08c.25.27.13,1.36-.25,1.36s-2.02-.21-2.25-.5l-1.19-1.49c-.38-.47,1.37-1.86,1.76-1.44Z"/>
        <path class="cls-2" d="M403.87,75.39l-3.32.68c-.37.08-1.09-.17-1.43-.33-.51-.24-.18-2.2.38-2.18l2.5.1,1.48-.16c.38-.04.75,1.81.39,1.88Z"/>
        <path class="cls-2" d="M615.9,306.67l-3.56-4.52c1.89-.63,4.42,2.13,3.56,4.52Z"/>
        <rect class="cls-2" x="241.28" y="93.51" width="3.87" height="2.75" transform="translate(305.44 348.44) rotate(-125.1)"/>
        <path class="cls-2" d="M258.57,82.14l-4.99-2.07c.25-.83,2.65-2.7,3.01-1.96l1.97,4.03Z"/>
        <path class="cls-2" d="M265.51,257.06c.45.15-2.28.71-2.97.34-.83-.44-2.1-2.09-2.47-2.82l5.44,2.48Z"/>
        <rect class="cls-2" x="410.09" y="64.63" width="2.83" height="2.81" transform="translate(472.08 478.39) rotate(-107.47)"/>
        <path class="cls-2" d="M1050.51,277.15c-2.27.92-4.38.8-5.26-2.13l5.26,2.13Z"/>
        <path class="cls-2" d="M984.22,214.17c.4.17.89,1.94.57,2.19-.48.37-1.61.85-1.97.35l-1.7-2.35c-.11-.33-.12-1.57.22-1.43l2.88,1.23Z"/>
        <path class="cls-2" d="M202.14,306.48l-5.14.24,1.91-1.97c.51-.52,2.26.66,3.23,1.73Z"/>
        <polygon class="cls-2" points="945.01 123.28 945.07 127.35 941.39 124.93 945.01 123.28"/>
        <path class="cls-2" d="M947.42,170.52l-6.18-1.07c1.67-.93,4.04-1.4,6.18,1.07Z"/>
        <path class="cls-2" d="M566.45,348.29c1.16.8,1.66,3.4.9,4.64-1.14-.79-1.56-2.4-.9-4.64Z"/>
        <path class="cls-2" d="M573.35,352c-1.15.14-3.12-1.69-3.88-3.45l1.97.47c.5.12.96,1.11,1.9,2.98Z"/>
        <path class="cls-2" d="M1023.02,214l-3.99-2.31,3.02-1.72c.53-.3,2.08,1.42,1.84,1.98l-.87,2.06Z"/>
        <path class="cls-2" d="M1035.92,295.12l-1.83-5.04c2.47.76,2.58.99,2.48,1.56l-.65,3.48Z"/>
        <path class="cls-2" d="M582.36,354.12l2.21,2.06.82,1.13c.23.32-2.6,1.02-2.64.63l-.4-3.83Z"/>
        <rect class="cls-2" x="584.94" y="338.96" width="3.75" height="2.19" transform="translate(744.45 999.7) rotate(-133.53)"/>
        <path class="cls-2" d="M318.55,247.12l2.62,2.2c.44.37-1.55,2.08-1.86,1.61l-1.51-2.28c.5-1.02.76-1.56.74-1.52Z"/>
        <rect class="cls-2" x="387.22" y="135.78" width="5.13" height="1.49" transform="translate(653.7 454.21) rotate(-149.02)"/>
        <path class="cls-2" d="M588.22,325.05c-.14.83-.5,2.98-.51,2.96l-1.26-1.36-.28-2.17c-.07-.57,2.18-.12,2.06.57Z"/>
        <rect class="cls-2" x="931.65" y="141.97" width="4.14" height="1.82" transform="translate(1660.6919 745.9878) rotate(-149.0205)"/>
        <path class="cls-2" d="M1044.35,304.1c.42.13-1.91,1.18-2.28.7l-2.25-2.89,4.53,2.18Z"/>
        <path class="cls-2" d="M152.51,259.92c.89-.59-1.08,1.25-1.65,1.08l-2.85-.87c.72-.87,1.18-1.56,1.46-1.44l3.03,1.24Z"/>
        <path class="cls-2" d="M537.93,342.75c2.56.31,2.69,3.16.52,3.78l-.52-3.78Z"/>
        <rect class="cls-2" x="188.53" y="258.25" width="2.63" height="3.13" transform="translate(89.26 565.47) rotate(-125.63)"/>
        <path class="cls-2" d="M1050.35,329.01l-4.91-1.39c1.66-1.15,4-.87,4.91,1.39Z"/>
        <path class="cls-2" d="M273.42,43.69l-4.89.65c.2-.83,1.07-2.32,1.6-2.09l3.29,1.44Z"/>
        <path class="cls-2" d="M603.61,333.67c-.15-.29.22-1.97.54-1.9.49.12,1.76.56,1.76,1.04v2.16c0,.49-2.08-.87-2.3-1.31Z"/>
        <path class="cls-2" d="M1049.92,252.11c.87.89,1.88,2.52,1.47,2.89l-2.08,1.83.62-4.72Z"/>
        <path class="cls-2" d="M204.45,267.99c.9-1.44-.24.38-.52.83-.34.55-2.16-.23-2.54-.76-.19-.27-.23-1.86.06-1.71l2.99,1.63Z"/>
        <path class="cls-2" d="M418.08,58.46l-4.67.48c.39-.8,1.11-2.24,1.57-2.01l3.1,1.53Z"/>
        <path class="cls-2" d="M906.72,140.39l-2.72.63c-.77.18-2.01-.78-2.59-2.05l5.31,1.42Z"/>
        <path class="cls-2" d="M178.95,256.54c-.39.8-1.1,2.24-1.56,2.01l-3.11-1.53,4.67-.48Z"/>
        <path class="cls-2" d="M1054.82,258.1c-.9.88-2.51,1.9-2.89,1.47l-1.84-2.09,4.73.61Z"/>
        <rect class="cls-2" x="957.65" y="197.11" width="3.67" height="2.21" transform="translate(1827.7986 651.997) rotate(-164.0803)"/>
        <path class="cls-2" d="M378.51,166.48l-4.67.48c.39-.8,1.1-2.24,1.56-2.01l3.11,1.53Z"/>
        <path class="cls-2" d="M375.11,75.15c-.2-.3-.15-2.06.21-1.96l2.52.73c.52.15-.49,1.74-.79,2.21s-1.59-.45-1.94-.98Z"/>
        <path class="cls-2" d="M620.77,352.88c-2.12.14-4.08-2.09-3.36-3.71l3.36,3.71Z"/>
        <path class="cls-2" d="M1066.4,342c-.9.88-2.5,1.9-2.87,1.49l-1.86-2.1,4.73.61Z"/>
        <path class="cls-2" d="M386.55,146.04c-2.21.49-2.83.63-2.94.24l-.71-2.64,3.65,2.4Z"/>
        <rect class="cls-2" x="624.49" y="299.96" width="4.14" height="1.82" transform="translate(1008.8684 881.3323) rotate(-149.0205)"/>
        <path class="cls-2" d="M1071.48,325.24l-1.35,2.59c-.22.42-1.23-1.08-2.11-2.24-.46.05.79-.43,1.27-.42l2.19.07Z"/>
        <path class="cls-2" d="M347.79,88.96c-.82,1.01-1.92,2.21-2.27,1.83l-1.8-1.94,4.06.11Z"/>
        <path class="cls-2" d="M1087.84,311.11c-.44.6-2.52.14-3.68-.99.74-.62,2.67-.24,3.68.99Z"/>
        <path class="cls-2" d="M234.86,308.52c.38,1.64.88,3.84.51,2.23-3.76.19-2.57-2.47-.51-2.23Z"/>
        <path class="cls-2" d="M245.64,250.56l-3.94,1.32c.55-1.58,1.28-2.31,3.94-1.32Z"/>
        <path class="cls-2" d="M247.85,104.14c.72,1.54,1.18,3.04,1.38,4.96-.96-1.21-1.39-2.21-1.38-4.96Z"/>
        <path class="cls-2" d="M272.6,80.05c-.44.82-1.04,2-1.49,1.81l-3.2-1.36,4.69-.45Z"/>
        <path class="cls-2" d="M276.46,49.92l-3.8,1.25c.28-1.31,1.39-2.11,3.8-1.25Z"/>
        <path class="cls-2" d="M311.55,257.77l-3.46-2.86c1.78-.33,3.09.6,3.46,2.86Z"/>
        <path class="cls-2" d="M333.35,81.38l.69-2.96c.13-.55,1.99.44,2,.99l.05,2.23c.02.76-2.91.48-2.74-.27Z"/>
        <path class="cls-2" d="M941.25,126.24c.38,1.64.88,3.84.51,2.23-3.76.19-2.57-2.47-.51-2.23Z"/>
        <path class="cls-2" d="M538.97,326.35l1.43-.39c.49-.13,1.62.8,1.43,1.27s-1.22,1.99-1.47,1.55l-1.39-2.42Z"/>
        <path class="cls-2" d="M365.25,65.59l-4.98-1.36c1.67-.98,4-.59,4.98,1.36Z"/>
        <path class="cls-2" d="M944.15,220.76c.38,1.64.88,3.84.51,2.23-3.76.19-2.57-2.47-.51-2.23Z"/>
        <path class="cls-2" d="M946.82,181.15l.32,3.58c.04.47-1.39.09-1.46-.37l-.32-2.28c-.16.1,1.07-.68,1.45-.92Z"/>
        <path class="cls-2" d="M183.94,252.26l-4.2,1.6c.45-1.44.89-2.35,1.47-2.22l2.73.62Z"/>
        <path class="cls-2" d="M390.36,58.3c-1.41.92-4.01,1-5.34-.85l5.34.85Z"/>
        <rect class="cls-2" x="950.6" y="159.42" width="3" height="2.63" transform="translate(1599.8534 876.8035) rotate(-141.7152)"/>
        <path class="cls-2" d="M392.04,55.51c-.28.7-2.75.16-3.54-.95.29-.7,2.75-.18,3.54.95Z"/>
        <path class="cls-2" d="M390.28,68.08l1.03-1.08c.34-.36,1.7-.48,1.81,0s.12,2.54-.32,2.32l-2.52-1.24Z"/>
        <path class="cls-2" d="M953.84,148.13l1.03-1.08c.34-.36,1.7-.48,1.81,0s.13,2.55-.31,2.33l-2.52-1.25Z"/>
        <path class="cls-2" d="M404.26,39.76c.69.31.17,2.72-.95,3.55-.69-.33-.17-2.74.95-3.55Z"/>
        <path class="cls-2" d="M408.04,42.42c.72,1.54,1.18,3.04,1.38,4.96-.96-1.21-1.39-2.21-1.38-4.96Z"/>
        <path class="cls-2" d="M411.3,4.24l-1.53.99-2.14-.77c-.4-.14.14-1.74.53-1.58l3.14,1.35Z"/>
        <path class="cls-2" d="M158.05,254.19c.22-2.27.04-2.25.32-2.16l2.08.71c.42.14-.39,1.54-.84,1.52l-1.56-.07Z"/>
        <path class="cls-2" d="M428.07,64.42l.84,2.65c.13.4-1.34.88-1.52.5l-1.08-2.39,1.76-.75Z"/>
        <path class="cls-2" d="M154,268.08l-5.06-.19,2.99-1.29c.62-.27,1.08.36,2.07,1.49Z"/>
        <path class="cls-2" d="M429.73,63.23c.31-.05-.94.52-1.26.35l-2.17-1.15c-.32.57.45-.79.73-1.28s1.31.6,2.71,2.07Z"/>
        <path class="cls-2" d="M1003.46,224.01l-3.46-2.86c1.78-.33,3.09.6,3.46,2.86Z"/>
        <path class="cls-2" d="M1017.08,222.38c.72,1.1-.97,1.58-1.85.78-1.36-2,.47-3.51,1.85-.78Z"/>
        <path class="cls-2" d="M446.08,9.22c-.29.69-2.75.16-3.54-.95.3-.7,2.74-.18,3.54.95Z"/>
        <path class="cls-2" d="M589.28,364.13c.96-.1,2.39-.06,2.38.45l-.07,3.06-2.31-3.51Z"/>
        <path class="cls-2" d="M1031.49,267.12c-1.26,1.33-3.16.58-4.33-.84l4.33.84Z"/>
        <path class="cls-2" d="M1033.44,284.98l2.39,1.94c.24.19-.13,1.57-.37,1.38l-2.22-1.73c.08-.63.31-2.5.2-1.6Z"/>
        <path class="cls-2" d="M1042.42,313.81l-1.53.99-2.14-.77c-.39-.14.14-1.74.53-1.58l3.14,1.35Z"/>
        <path class="cls-2" d="M571.86,335.5c-.37.02-.05-1.81.33-1.8l1.89.06c.37.01.92,1.56.55,1.58l-2.76.17Z"/>
        <path class="cls-2" d="M1046.31,269.6c-.27.71-2.75.18-3.53-.95.27-.7,2.77-.16,3.53.95Z"/>
        <path class="cls-2" d="M1057.5,326.24l-3.46-2.86c1.78-.33,3.09.6,3.46,2.86Z"/>
        <path class="cls-2" d="M1055.3,329.71c-.38.02-.02-1.81.35-1.8l1.89.05c.38.01.92,1.56.54,1.58l-2.78.16Z"/>
        <path class="cls-2" d="M1066.73,277.99c-.82,1.01-1.93,2.19-2.28,1.82l-1.78-1.93,4.06.11Z"/>
        <rect class="cls-2" x="533" y="323.38" width="2.89" height="2.58" transform="translate(875.71 848.66) rotate(-154.35)"/>
        <path class="cls-2" d="M1087.08,332.73l-4.98-1.36c1.67-.98,4-.59,4.98,1.36Z"/>
        <path class="cls-2" d="M207.07,235.2c-.37.02-.03-1.81.34-1.8l1.89.06c.38.01.92,1.56.55,1.58l-2.78.17Z"/>
      </g>
    </g>
  </g>
</svg>