<?xml version="1.0" encoding="UTF-8"?>
<svg xmlns="http://www.w3.org/2000/svg" viewBox="0 0 1178 366.55">
  <defs>
    <style>
      .cls-1 {
        fill: none;
        stroke: #d6e3f0;
        stroke-linecap: round;
        stroke-linejoin: round;
        stroke-width: 5px;
      }

      .cls-2 {
        fill: #d1e3f0;
      }

      .cls-3 {
        fill: #a9bfd4;
      }
    </style>
  </defs>
  <g id="Capa_1" data-name="Capa 1">
    <rect class="cls-3" x="-2.41" y="-88.22" width="1182.82" height="455.53"/>
  </g>
  <g id="Capa_2" data-name="Capa 2">
    <polygon id="Path" class="cls-1" points=".19 .34 1174.1 .34 1174.1 364.74 .19 364.74 .19 .34"/>
    <g>
      <path class="cls-2" d="M116.08,211.08v-84.26h20.09v84.26h-20.09Z"/>
      <path class="cls-2" d="M178.06,212.47c-6,0-11.45-1.33-16.33-3.98-4.89-2.66-8.77-6.33-11.66-11.02-2.89-4.69-4.33-10.04-4.33-16.04s1.44-11.46,4.33-16.16c2.89-4.69,6.77-8.39,11.66-11.08,4.88-2.69,10.33-4.04,16.33-4.04s11.56,1.35,16.45,4.04c4.89,2.69,8.77,6.39,11.66,11.08,2.89,4.7,4.33,10.04,4.33,16.04s-1.44,11.47-4.33,16.16c-2.89,4.69-6.79,8.37-11.72,11.02-4.93,2.65-10.39,3.98-16.39,3.98ZM178.06,194.69c2.54,0,4.73-.58,6.58-1.73,1.84-1.15,3.27-2.75,4.27-4.79,1-2.04,1.5-4.33,1.5-6.87s-.5-4.92-1.5-6.92c-1-2-2.42-3.58-4.27-4.73-1.85-1.16-4.04-1.73-6.58-1.73s-4.62.57-6.47,1.73c-1.84,1.15-3.29,2.73-4.33,4.73-1.04,2-1.56,4.31-1.56,6.92s.52,4.83,1.56,6.87c1.04,2.04,2.48,3.64,4.33,4.79,1.85,1.15,4,1.73,6.47,1.73Z"/>
      <path class="cls-2" d="M229.08,234.51v-17.08h28.97c1.31,0,2.35-.39,3.12-1.16.77-.77,1.15-1.69,1.15-2.77v-11.77h-.46c-1.23,1.54-2.68,2.92-4.33,4.16-1.66,1.23-3.52,2.15-5.6,2.77s-4.54.92-7.39.92c-5.23,0-9.85-1.25-13.85-3.75-4-2.5-7.12-5.93-9.35-10.27s-3.34-9.18-3.34-14.48c0-5.62,1.21-10.75,3.63-15.41,2.42-4.66,6.02-8.39,10.79-11.2,4.77-2.81,10.58-4.21,17.43-4.21s12.24,1.35,17.08,4.04c4.85,2.69,8.64,6.44,11.37,11.25,2.73,4.81,4.1,10.45,4.1,16.91v34.17c0,5.54-1.63,9.9-4.9,13.1-3.27,3.19-7.79,4.79-13.56,4.79h-34.86ZM250.2,193.3c2.31,0,4.35-.56,6.12-1.67,1.77-1.12,3.15-2.6,4.15-4.44,1-1.85,1.5-3.89,1.5-6.12,0-2.46-.5-4.67-1.5-6.64-1-1.96-2.36-3.5-4.1-4.61s-3.79-1.68-6.18-1.68-4.37.54-6.17,1.62c-1.81,1.08-3.19,2.6-4.16,4.56-.96,1.96-1.44,4.14-1.44,6.52s.48,4.39,1.44,6.23c.96,1.85,2.34,3.35,4.16,4.5,1.81,1.16,3.87,1.73,6.17,1.73Z"/>
      <path class="cls-2" d="M323.96,212.47c-6,0-11.44-1.33-16.33-3.98-4.89-2.66-8.77-6.33-11.66-11.02-2.89-4.69-4.33-10.04-4.33-16.04s1.44-11.46,4.33-16.16c2.89-4.69,6.77-8.39,11.66-11.08,4.89-2.69,10.33-4.04,16.33-4.04s11.56,1.35,16.45,4.04c4.88,2.69,8.77,6.39,11.66,11.08,2.89,4.7,4.33,10.04,4.33,16.04s-1.44,11.47-4.33,16.16c-2.89,4.69-6.79,8.37-11.72,11.02-4.93,2.65-10.39,3.98-16.39,3.98ZM323.96,194.69c2.54,0,4.73-.58,6.58-1.73,1.85-1.15,3.27-2.75,4.27-4.79,1-2.04,1.5-4.33,1.5-6.87s-.5-4.92-1.5-6.92c-1-2-2.42-3.58-4.27-4.73-1.84-1.16-4.04-1.73-6.58-1.73s-4.62.57-6.46,1.73c-1.85,1.15-3.29,2.73-4.33,4.73-1.04,2-1.56,4.31-1.56,6.92s.52,4.83,1.56,6.87c1.04,2.04,2.48,3.64,4.33,4.79,1.84,1.15,4,1.73,6.46,1.73Z"/>
    </g>
    <g>
      <g>
        <path class="cls-2" d="M611.5,174.3c-1.27-.7-2.7-1.05-4.27-1.05s-2.98.35-4.25,1.05c-1.27.7-2.28,1.66-3.03,2.88-.75,1.22-1.12,2.62-1.12,4.2s.38,2.95,1.12,4.17,1.76,2.17,3.03,2.87c.53.29,1.09.5,1.67.67v6.1h5.19v-6.11c.57-.17,1.13-.38,1.65-.66,1.28-.69,2.29-1.65,3.04-2.87s1.12-2.62,1.12-4.2-.38-2.95-1.12-4.17c-.75-1.22-1.76-2.18-3.03-2.88ZM610.04,183.14c-.26.53-.63.95-1.11,1.25-.48.3-1.05.45-1.71.45s-1.2-.15-1.68-.45c-.48-.3-.85-.71-1.12-1.25-.27-.53-.4-1.12-.4-1.79s.13-1.28.4-1.8c.27-.52.65-.93,1.12-1.23.48-.3,1.04-.45,1.68-.45s1.23.15,1.71.45c.48.3.85.71,1.11,1.23.26.52.39,1.12.39,1.8s-.13,1.26-.39,1.79Z"/>
        <path class="cls-2" d="M628.55,182.28c0,.44-.11.86-.33,1.26-.22.4-.52.72-.92.96-.39.24-.84.36-1.36.36s-.98-.12-1.38-.36c-.4-.24-.71-.56-.93-.96s-.33-.82-.33-1.26v-8.64h-5.19v8.88c0,1.3.32,2.48.97,3.54.65,1.06,1.57,1.9,2.76,2.5,1.19.61,2.58.92,4.19.92s3-.3,4.16-.92c1.15-.61,2.03-1.44,2.64-2.5.61-1.06.92-2.24.92-3.54v-8.88h-5.19v8.64Z"/>
        <path class="cls-2" d="M639.38,166.14c-.8,0-1.49.29-2.06.87-.57.58-.85,1.26-.85,2.04s.29,1.46.85,2.04c.57.58,1.25.87,2.06.87s1.46-.29,2.02-.87c.57-.58.86-1.26.86-2.04s-.29-1.46-.86-2.04c-.57-.58-1.25-.87-2.02-.87Z"/>
        <rect class="cls-2" x="636.74" y="173.64" width="5.22" height="15.45"/>
        <path class="cls-2" d="M663.7,179.69c-.83-.35-1.81-.52-2.96-.52h-2.4c-.24,0-.44-.08-.58-.24-.15-.16-.23-.36-.23-.6,0-.22.08-.41.23-.57.15-.16.34-.24.58-.24h6.63v-3.87h-7.65c-.92,0-1.76.22-2.52.66-.76.44-1.36,1.03-1.8,1.77-.44.74-.66,1.55-.66,2.43,0,1.18.24,2.13.72,2.87.48.73,1.13,1.26,1.95,1.59.82.33,1.74.5,2.76.5h2.52c.16,0,.3.04.44.12.13.08.24.19.33.33.09.14.13.28.13.42,0,.16-.04.31-.12.45-.08.14-.19.25-.31.33-.13.08-.3.12-.5.12h-7.32v3.87h8.25c.96,0,1.83-.22,2.59-.67s1.38-1.05,1.85-1.8c.46-.75.69-1.58.69-2.48,0-1.18-.23-2.13-.69-2.85-.46-.72-1.11-1.25-1.94-1.61Z"/>
        <path class="cls-2" d="M680.86,174.3c-1.27-.7-2.7-1.05-4.28-1.05s-2.97.35-4.25,1.05c-1.27.7-2.28,1.66-3.03,2.88-.75,1.22-1.12,2.62-1.12,4.2s.38,2.95,1.12,4.17,1.76,2.17,3.03,2.87c1.27.69,2.69,1.04,4.25,1.04s2.98-.35,4.26-1.04c1.28-.69,2.29-1.65,3.04-2.87s1.12-2.62,1.12-4.2-.38-2.95-1.12-4.17c-.75-1.22-1.76-2.18-3.03-2.88ZM679.4,183.14c-.26.53-.63.95-1.11,1.25-.48.3-1.05.45-1.71.45s-1.2-.15-1.68-.45c-.48-.3-.85-.71-1.12-1.25-.27-.53-.41-1.12-.41-1.79s.14-1.28.41-1.8c.27-.52.65-.93,1.12-1.23.48-.3,1.04-.45,1.68-.45s1.23.15,1.71.45c.48.3.85.71,1.11,1.23.26.52.39,1.12.39,1.8s-.13,1.26-.39,1.79Z"/>
        <path class="cls-2" d="M709.42,174.14c-1.11-.57-2.44-.85-3.98-.85-.76,0-1.46.07-2.11.22-.65.15-1.24.36-1.77.63-.53.27-.99.58-1.37.95h-.06c-.38-.36-.83-.67-1.35-.95-.52-.27-1.11-.48-1.77-.63s-1.37-.22-2.13-.22c-1.52,0-2.83.28-3.93.85-1.1.57-1.96,1.36-2.57,2.37-.61,1.01-.92,2.19-.92,3.53v9.06h5.19v-8.82c0-.44.1-.83.3-1.18.2-.35.49-.64.87-.87.38-.23.8-.34,1.26-.34.5,0,.94.11,1.32.33.38.22.67.51.88.87.21.36.31.76.31,1.2v8.82h5.16v-8.82c0-.44.1-.84.3-1.2.2-.36.49-.65.86-.87s.8-.33,1.3-.33.92.12,1.28.34c.35.23.63.52.84.87s.32.75.32,1.18v8.82h5.22v-9.06c0-1.34-.3-2.52-.9-3.53-.6-1.01-1.46-1.8-2.56-2.37Z"/>
        <path class="cls-2" d="M724.79,171.42c-.66-1.04-1.58-1.85-2.76-2.45-1.18-.59-2.51-.88-3.99-.88h-2.01v4.05h1.65c.66,0,1.23.13,1.71.39.48.26.84.61,1.1,1.06.25.45.38.96.38,1.51s-.13,1.1-.38,1.55c-.25.45-.62.81-1.11,1.08-.49.27-1.07.42-1.73.44v3.93c1.66,0,3.09-.3,4.31-.92,1.21-.61,2.15-1.45,2.82-2.52s1.01-2.28,1.01-3.62-.33-2.59-.99-3.63Z"/>
        <path class="cls-2" d="M718.7,183.45c-.82,0-1.53.29-2.12.88s-.88,1.29-.88,2.12.29,1.53.88,2.13c.59.6,1.29.9,2.12.9.54,0,1.04-.14,1.5-.42.46-.28.82-.65,1.09-1.11.27-.46.41-.96.41-1.5,0-.82-.3-1.53-.89-2.12s-1.29-.88-2.11-.88Z"/>
      </g>
      <g>
        <path class="cls-2" d="M804.97,173.78c-1.27-.7-2.7-1.05-4.28-1.05s-2.97.35-4.25,1.05-2.28,1.66-3.03,2.88c-.75,1.22-1.12,2.62-1.12,4.2s.38,2.95,1.12,4.17,1.76,2.17,3.03,2.87c.53.29,1.09.5,1.67.67v6.1h5.19v-6.11c.57-.17,1.12-.38,1.65-.66,1.28-.69,2.29-1.65,3.04-2.87s1.12-2.62,1.12-4.2-.38-2.95-1.12-4.17c-.75-1.22-1.76-2.18-3.03-2.88ZM803.52,182.61c-.26.53-.63.95-1.11,1.25-.48.3-1.05.45-1.71.45s-1.2-.15-1.68-.45c-.48-.3-.86-.71-1.12-1.25-.27-.53-.41-1.12-.41-1.79s.13-1.28.41-1.8c.27-.52.64-.93,1.12-1.23.48-.3,1.04-.45,1.68-.45s1.23.15,1.71.45c.48.3.85.71,1.11,1.23.26.52.39,1.12.39,1.8s-.13,1.26-.39,1.79Z"/>
        <path class="cls-2" d="M822.03,181.76c0,.44-.11.86-.33,1.26-.22.4-.53.72-.92.96s-.85.36-1.37.36-.98-.12-1.38-.36c-.4-.24-.71-.56-.93-.96-.22-.4-.33-.82-.33-1.26v-8.64h-5.19v8.88c0,1.3.33,2.48.98,3.54.65,1.06,1.57,1.9,2.76,2.5,1.19.61,2.58.92,4.18.92s3-.3,4.16-.92c1.15-.61,2.03-1.44,2.64-2.5.61-1.06.92-2.24.92-3.54v-8.88h-5.19v8.64Z"/>
        <path class="cls-2" d="M841.59,173.7c-1.12-.63-2.44-.94-3.96-.94-1.38,0-2.68.31-3.9.94s-2.2,1.54-2.92,2.73c-.73,1.19-1.09,2.67-1.09,4.42,0,1.6.38,2.98,1.14,4.12.76,1.15,1.8,2.04,3.13,2.66s2.87.93,4.61.93h4.83v-4.14h-5.16c-.56,0-1.06-.07-1.5-.21-.44-.14-.81-.36-1.1-.66s-.47-.66-.55-1.08h9.81c.06-.28.1-.63.13-1.05s.04-.78.04-1.08c0-1.54-.31-2.88-.92-4-.61-1.13-1.48-2.01-2.59-2.64ZM834.9,179.45c.04-.36.12-.69.25-1,.13-.31.3-.58.53-.83.22-.24.49-.42.81-.55s.69-.2,1.11-.2c.34,0,.64.04.92.13.27.09.5.21.69.36.19.15.37.33.53.55.16.22.27.46.34.71.07.25.11.53.11.83h-5.28Z"/>
        <path class="cls-2" d="M858.04,167.91c-.83.83-1.25,1.96-1.25,3.41v1.8h-2.43v4.08h2.43v11.37h5.22v-11.37h3.81v-4.08h-3.81v-1.53c0-.22.08-.41.22-.57.15-.16.33-.24.56-.24h3.69v-4.11h-5.01c-1.46,0-2.61.42-3.43,1.25Z"/>
        <path class="cls-2" d="M878.91,173.7c-1.12-.63-2.44-.94-3.96-.94-1.38,0-2.68.31-3.9.94s-2.2,1.54-2.92,2.73c-.73,1.19-1.09,2.67-1.09,4.42,0,1.6.38,2.98,1.14,4.12.76,1.15,1.8,2.04,3.13,2.66s2.87.93,4.61.93h4.83v-4.14h-5.16c-.56,0-1.06-.07-1.5-.21-.44-.14-.81-.36-1.09-.66-.29-.3-.48-.66-.56-1.08h9.81c.06-.28.1-.63.13-1.05s.04-.78.04-1.08c0-1.54-.3-2.88-.92-4s-1.47-2.01-2.59-2.64ZM872.22,179.45c.04-.36.12-.69.25-1,.13-.31.3-.58.53-.83.22-.24.49-.42.81-.55.32-.13.69-.2,1.11-.2.34,0,.65.04.92.13.27.09.5.21.69.36.19.15.36.33.52.55.16.22.28.46.35.71.07.25.1.53.1.83h-5.28Z"/>
        <path class="cls-2" d="M906.79,173.61c-1.11-.57-2.44-.85-3.98-.85-.76,0-1.46.07-2.11.22-.65.15-1.24.36-1.77.63-.53.27-.99.58-1.37.95h-.06c-.38-.36-.83-.67-1.35-.95-.52-.27-1.11-.48-1.77-.63s-1.37-.22-2.13-.22c-1.52,0-2.83.28-3.93.85-1.1.57-1.96,1.36-2.57,2.37-.61,1.01-.92,2.19-.92,3.53v9.06h5.19v-8.82c0-.44.1-.83.3-1.18.2-.35.49-.64.87-.87.38-.23.8-.34,1.26-.34.5,0,.94.11,1.32.33.38.22.67.51.88.87.21.36.31.76.31,1.2v8.82h5.16v-8.82c0-.44.1-.84.3-1.2.2-.36.49-.65.86-.87s.8-.33,1.3-.33.92.12,1.28.34c.35.23.63.52.84.87s.32.75.32,1.18v8.82h5.22v-9.06c0-1.34-.3-2.52-.9-3.53-.6-1.01-1.46-1.8-2.56-2.37Z"/>
        <path class="cls-2" d="M922.17,170.9c-.66-1.04-1.58-1.85-2.76-2.45-1.18-.59-2.51-.88-3.99-.88h-2.01v4.05h1.65c.66,0,1.23.13,1.71.39.48.26.84.61,1.1,1.06.25.45.38.96.38,1.51s-.13,1.1-.38,1.55c-.25.45-.62.81-1.11,1.08-.49.27-1.07.42-1.73.44v3.93c1.66,0,3.09-.3,4.31-.92,1.21-.61,2.15-1.45,2.82-2.52s1.01-2.28,1.01-3.62-.33-2.59-.99-3.63Z"/>
        <path class="cls-2" d="M916.08,182.93c-.82,0-1.53.29-2.12.88s-.88,1.29-.88,2.12.29,1.53.88,2.13c.59.6,1.29.9,2.12.9.54,0,1.04-.14,1.5-.42.46-.28.82-.65,1.09-1.11.27-.46.41-.96.41-1.5,0-.82-.3-1.53-.89-2.12s-1.29-.88-2.11-.88Z"/>
      </g>
      <g>
        <path class="cls-2" d="M995.49,175.58c-1.25.66-2.23,1.58-2.96,2.75-.72,1.17-1.08,2.5-1.08,4s.36,2.83,1.08,3.99c.72,1.16,1.71,2.07,2.96,2.73s2.67.99,4.28.99h2.67v-4.26h-2.34c-.7,0-1.31-.16-1.83-.46-.52-.31-.92-.72-1.2-1.25s-.42-1.1-.42-1.74.14-1.22.42-1.74c.28-.52.68-.93,1.2-1.23.52-.3,1.13-.45,1.83-.45h2.34v-4.32h-2.67c-1.6,0-3.03.33-4.28.99Z"/>
        <path class="cls-2" d="M1016.94,175.25c-1.27-.7-2.7-1.05-4.28-1.05s-2.97.35-4.25,1.05-2.28,1.66-3.03,2.88c-.75,1.22-1.12,2.62-1.12,4.2s.38,2.95,1.12,4.17,1.76,2.17,3.03,2.87c1.27.69,2.69,1.04,4.25,1.04s2.98-.35,4.26-1.04c1.28-.69,2.29-1.65,3.04-2.87s1.12-2.62,1.12-4.2-.38-2.95-1.12-4.17c-.75-1.22-1.76-2.18-3.03-2.88ZM1015.49,184.08c-.26.53-.63.95-1.11,1.25-.48.3-1.05.45-1.71.45s-1.2-.15-1.68-.45c-.48-.3-.86-.71-1.12-1.25-.27-.53-.41-1.12-.41-1.79s.13-1.28.41-1.8c.27-.52.64-.93,1.12-1.23.48-.3,1.04-.45,1.68-.45s1.23.15,1.71.45c.48.3.85.71,1.11,1.23.26.52.39,1.12.39,1.8s-.13,1.26-.39,1.79Z"/>
        <path class="cls-2" d="M1035.62,175.11c-1.16-.61-2.54-.92-4.14-.92s-3,.3-4.18.92c-1.19.61-2.11,1.44-2.76,2.49-.65,1.05-.98,2.23-.98,3.55v8.88h5.22v-8.64c0-.48.11-.91.33-1.29.22-.38.53-.69.93-.93.4-.24.86-.36,1.38-.36s.95.12,1.33.34c.39.23.69.54.92.95.22.4.33.83.33,1.29v8.64h5.19v-8.88c0-1.32-.3-2.5-.92-3.55-.61-1.05-1.5-1.88-2.65-2.49Z"/>
        <path class="cls-2" d="M1048.7,170.9h-5.19v3.69h-2.43v4.08h2.43v6.72c0,1.44.42,2.58,1.25,3.41.83.83,1.98,1.25,3.44,1.25h4.68v-4.26h-3.36c-.22,0-.41-.08-.57-.23-.16-.15-.24-.33-.24-.55v-6.33h4.17v-4.08h-4.17v-3.69Z"/>
        <path class="cls-2" d="M1067.43,175.26c-1.23-.69-2.71-1.03-4.42-1.03s-3.22.35-4.5,1.06c-1.28.71-2.27,1.7-2.97,2.96s-1.05,2.69-1.05,4.29.29,2.89.87,4.07c.58,1.17,1.39,2.1,2.45,2.79,1.05.69,2.23,1.03,3.55,1.03.84,0,1.57-.12,2.19-.36.62-.24,1.14-.57,1.58-.99.43-.42.77-.9,1.04-1.44h.15v2.4h5.01v-7.68c0-1.58-.34-2.99-1.02-4.21-.68-1.23-1.63-2.19-2.87-2.88ZM1065.66,184.16c-.25.54-.62.96-1.09,1.27-.48.31-1.03.47-1.65.47s-1.14-.16-1.62-.47c-.48-.31-.85-.73-1.11-1.27-.26-.54-.39-1.15-.39-1.83s.13-1.28.39-1.8c.26-.52.62-.93,1.09-1.23.47-.3,1.01-.45,1.63-.45s1.19.16,1.65.47c.46.31.82.72,1.08,1.23.26.51.39,1.11.39,1.79s-.12,1.29-.38,1.83Z"/>
        <path class="cls-2" d="M1077.87,175.58c-1.25.66-2.24,1.58-2.96,2.75-.72,1.17-1.08,2.5-1.08,4s.36,2.83,1.08,3.99c.72,1.16,1.7,2.07,2.96,2.73,1.25.66,2.67.99,4.27.99h2.67v-4.26h-2.34c-.7,0-1.31-.16-1.83-.46-.52-.31-.92-.72-1.2-1.25s-.42-1.1-.42-1.74.14-1.22.42-1.74c.28-.52.68-.93,1.2-1.23.52-.3,1.13-.45,1.83-.45h2.34v-4.32h-2.67c-1.6,0-3.03.33-4.27.99Z"/>
        <path class="cls-2" d="M1093.66,170.9h-5.19v3.69h-2.43v4.08h2.43v6.72c0,1.44.41,2.58,1.25,3.41.83.83,1.97,1.25,3.43,1.25h4.68v-4.26h-3.36c-.22,0-.41-.08-.57-.23-.16-.15-.24-.33-.24-.55v-6.33h4.17v-4.08h-4.17v-3.69Z"/>
        <path class="cls-2" d="M1113.93,177.81c-.61-1.13-1.47-2.01-2.59-2.64s-2.44-.94-3.96-.94c-1.38,0-2.68.31-3.9.94s-2.2,1.54-2.92,2.73c-.73,1.19-1.09,2.67-1.09,4.42,0,1.6.38,2.98,1.14,4.12.76,1.15,1.8,2.04,3.13,2.66s2.87.93,4.61.93h4.83v-4.14h-5.16c-.56,0-1.06-.07-1.5-.21-.44-.14-.81-.36-1.09-.66-.29-.3-.48-.66-.56-1.08h9.81c.06-.28.1-.63.13-1.05s.04-.78.04-1.08c0-1.54-.3-2.88-.92-4ZM1104.64,180.92c.04-.36.12-.69.25-1,.13-.31.3-.58.53-.83.22-.24.49-.42.81-.55.32-.13.69-.2,1.11-.2.34,0,.65.04.92.13.27.09.5.21.69.36.19.15.36.33.52.55.16.22.28.46.35.71.07.25.1.53.1.83h-5.28Z"/>
      </g>
    </g>
  </g>
</svg>