<?xml version="1.0" encoding="UTF-8"?>
<svg xmlns="http://www.w3.org/2000/svg" viewBox="0 0 1178 366.55">
  <defs>
    <style>
      .cls-1 {
        fill: #d1e3f0;
      }

      .cls-2 {
        fill: #a9bfd4;
      }
    </style>
  </defs>
  <g id="Capa_1" data-name="Capa 1">
    <rect class="cls-2" x="-2.41" y="-88.22" width="1182.82" height="455.53"/>
  </g>
  <g id="Capa_2" data-name="Capa 2">
    <g>
      <path class="cls-1" d="M113.92,366.55c-21.89,0-41.54-5.72-58.95-17.17-17.42-11.44-30.93-26.87-40.55-46.27C4.8,283.71,0,261.25,0,235.7s5.8-50.25,17.41-71.14c11.6-20.9,28.03-37.23,49.25-49.01,21.22-11.77,46.1-17.66,74.63-17.66s52.99,5.72,73.39,17.17c20.4,11.44,36.23,27.36,47.51,47.76,11.27,20.4,16.92,43.7,16.92,69.9v127.36h-83.08v-39.8h-2.49c-4.32,8.96-10.04,16.92-17.17,23.88-7.13,6.96-15.84,12.44-26.12,16.41-10.28,3.98-22.38,5.98-36.32,5.98ZM139.79,291.42c10.28,0,19.4-2.57,27.36-7.71,7.96-5.14,14.01-12.19,18.16-21.14,4.15-8.96,6.22-19.07,6.22-30.35s-2.16-21.14-6.47-29.6c-4.32-8.45-10.28-15.26-17.91-20.4s-16.75-7.71-27.36-7.71-19.32,2.49-27.11,7.46c-7.8,4.98-13.85,11.78-18.16,20.41-4.32,8.62-6.47,18.58-6.47,29.85s2.15,21.39,6.47,30.35c4.31,8.96,10.45,16,18.41,21.14,7.96,5.14,16.92,7.71,26.87,7.71Z"/>
      <path class="cls-1" d="M304.46,360.08L416.89,53.62c5.98-15.92,15.75-27.94,29.35-36.07,13.6-8.12,29.02-12.19,46.27-12.19s32.66,3.98,46.27,11.94c13.6,7.96,23.39,19.9,29.35,35.81l112.44,306.96h-101.99l-20.4-63.68h-133.33l-21.39,63.68h-99.01ZM446.75,220.28h89.55l-38.31-124.87c-.33-1.66-1-2.82-1.99-3.48-.99-.66-2.15-1-3.48-1-1,0-1.91.33-2.74,1s-1.57,1.82-2.23,3.48l-40.79,124.87Z"/>
      <path class="cls-1" d="M843.76,366.55c-27.85,0-52.32-5.81-73.38-17.42-21.07-11.6-37.31-27.85-48.75-48.75-11.44-20.89-17.17-45.27-17.17-73.13V-3.1h86.07V127.74h1.99c5.3-6.63,11.44-12.19,18.41-16.66s14.75-7.79,23.39-9.95c8.62-2.15,17.58-3.23,26.87-3.23,23.88,0,45.02,5.39,63.43,16.17,18.41,10.78,32.83,25.95,43.29,45.52,10.45,19.58,15.67,42.46,15.67,68.66,0,19.9-3.23,38.31-9.7,55.22-6.47,16.92-15.85,31.6-28.11,44.03-12.28,12.44-26.96,22.06-44.03,28.85-17.09,6.79-36.41,10.2-57.96,10.2ZM843.76,290.93c10.62,0,19.73-2.49,27.37-7.47,7.62-4.97,13.6-11.94,17.9-20.89,4.31-8.96,6.47-19.07,6.47-30.35s-2.07-20.81-6.22-29.6c-4.15-8.79-10.12-15.67-17.91-20.65-7.8-4.97-17-7.46-27.61-7.46-9.94,0-18.9,2.49-26.86,7.46-7.96,4.98-14.02,11.86-18.16,20.65-4.15,8.79-6.22,18.66-6.22,29.6s2.06,21.39,6.22,30.35c4.15,8.96,10.2,15.92,18.16,20.89,7.96,4.98,16.92,7.47,26.86,7.47Z"/>
      <path class="cls-1" d="M1026.34,360.08V11.83h207.46c18.24,0,34.74,3.9,49.5,11.69,14.75,7.79,26.54,18.66,35.32,32.58,8.79,13.93,13.18,30.35,13.18,49.25,0,10.29-1.82,20.15-5.47,29.6-3.66,9.46-8.88,17.91-15.68,25.38-6.8,7.46-14.84,13.85-24.13,19.15,10.95,5.31,20.48,12.19,28.61,20.65,8.12,8.46,14.43,18.16,18.91,29.1,4.48,10.95,6.71,22.39,6.71,34.33,0,19.57-4.56,36.56-13.68,50.99-9.13,14.43-21.32,25.62-36.57,33.58-15.26,7.96-32.01,11.94-50.24,11.94h-213.93ZM1121.36,148.14h85.08c5.97,0,11.1-1.32,15.42-3.98,4.31-2.66,7.72-6.22,10.2-10.7,2.49-4.48,3.73-9.53,3.73-15.17,0-5.3-1.25-10.2-3.73-14.68-2.49-4.48-5.89-8.12-10.2-10.94-4.32-2.82-9.45-4.23-15.42-4.23h-85.08v59.69ZM1121.36,284.96h95.52c5.97,0,11.27-1.41,15.92-4.23,4.64-2.81,8.37-6.71,11.19-11.69,2.82-4.97,4.23-10.45,4.23-16.41s-1.42-11.19-4.23-15.67-6.55-8.21-11.19-11.2c-4.65-2.98-9.95-4.48-15.92-4.48h-95.52v63.69Z"/>
    </g>
  </g>
</svg>